<mxfile host="app.diagrams.net" modified="2020-07-26T03:24:51.664Z" agent="5.0 (Macintosh; Intel Mac OS X 10_14_6) AppleWebKit/537.36 (KHTML, like Gecko) Chrome/84.0.4147.89 Safari/537.36" etag="TGsQG13RCX-2rj8_N7Bj" version="13.5.3" type="github">
  <diagram id="C5RBs43oDa-KdzZeNtuy" name="Page-1">
    <mxGraphModel dx="1586" dy="1164" grid="0" gridSize="10" guides="1" tooltips="1" connect="1" arrows="1" fold="1" page="0" pageScale="1" pageWidth="827" pageHeight="1169" background="#ffffff" math="0" shadow="0">
      <root>
        <mxCell id="WIyWlLk6GJQsqaUBKTNV-0" />
        <mxCell id="WIyWlLk6GJQsqaUBKTNV-1" parent="WIyWlLk6GJQsqaUBKTNV-0" />
        <mxCell id="zkfFHV4jXpPFQw0GAbJ--0" value="Map" style="swimlane;fontStyle=1;align=center;verticalAlign=top;childLayout=stackLayout;horizontal=1;startSize=26;horizontalStack=0;resizeParent=1;resizeLast=0;collapsible=1;marginBottom=0;rounded=0;shadow=0;strokeWidth=1;labelBackgroundColor=none;" parent="WIyWlLk6GJQsqaUBKTNV-1" vertex="1">
          <mxGeometry x="243" y="120" width="160" height="164" as="geometry">
            <mxRectangle x="230" y="140" width="160" height="26" as="alternateBounds" />
          </mxGeometry>
        </mxCell>
        <mxCell id="zkfFHV4jXpPFQw0GAbJ--1" value="+ style" style="text;align=left;verticalAlign=top;spacingLeft=4;spacingRight=4;overflow=hidden;rotatable=0;points=[[0,0.5],[1,0.5]];portConstraint=eastwest;labelBackgroundColor=none;" parent="zkfFHV4jXpPFQw0GAbJ--0" vertex="1">
          <mxGeometry y="26" width="160" height="26" as="geometry" />
        </mxCell>
        <mxCell id="zkfFHV4jXpPFQw0GAbJ--2" value="+ painter" style="text;align=left;verticalAlign=top;spacingLeft=4;spacingRight=4;overflow=hidden;rotatable=0;points=[[0,0.5],[1,0.5]];portConstraint=eastwest;rounded=0;shadow=0;html=0;labelBackgroundColor=none;" parent="zkfFHV4jXpPFQw0GAbJ--0" vertex="1">
          <mxGeometry y="52" width="160" height="26" as="geometry" />
        </mxCell>
        <mxCell id="zkfFHV4jXpPFQw0GAbJ--3" value="+ handlers" style="text;align=left;verticalAlign=top;spacingLeft=4;spacingRight=4;overflow=hidden;rotatable=0;points=[[0,0.5],[1,0.5]];portConstraint=eastwest;rounded=0;shadow=0;html=0;labelBackgroundColor=none;" parent="zkfFHV4jXpPFQw0GAbJ--0" vertex="1">
          <mxGeometry y="78" width="160" height="26" as="geometry" />
        </mxCell>
        <mxCell id="zkfFHV4jXpPFQw0GAbJ--4" value="" style="line;html=1;strokeWidth=1;align=left;verticalAlign=middle;spacingTop=-1;spacingLeft=3;spacingRight=3;rotatable=0;labelPosition=right;points=[];portConstraint=eastwest;labelBackgroundColor=none;" parent="zkfFHV4jXpPFQw0GAbJ--0" vertex="1">
          <mxGeometry y="104" width="160" height="8" as="geometry" />
        </mxCell>
        <mxCell id="zkfFHV4jXpPFQw0GAbJ--5" value="- update()" style="text;align=left;verticalAlign=top;spacingLeft=4;spacingRight=4;overflow=hidden;rotatable=0;points=[[0,0.5],[1,0.5]];portConstraint=eastwest;labelBackgroundColor=none;" parent="zkfFHV4jXpPFQw0GAbJ--0" vertex="1">
          <mxGeometry y="112" width="160" height="26" as="geometry" />
        </mxCell>
        <mxCell id="FlZPNkmP8DWsrbXSqgAE-45" value="- render()" style="text;align=left;verticalAlign=top;spacingLeft=4;spacingRight=4;overflow=hidden;rotatable=0;points=[[0,0.5],[1,0.5]];portConstraint=eastwest;labelBackgroundColor=none;" parent="zkfFHV4jXpPFQw0GAbJ--0" vertex="1">
          <mxGeometry y="138" width="160" height="26" as="geometry" />
        </mxCell>
        <mxCell id="aZz0crYhpi_2GFQYe-Nl-20" value="SourceCache" style="swimlane;fontStyle=1;align=center;verticalAlign=top;childLayout=stackLayout;horizontal=1;startSize=26;horizontalStack=0;resizeParent=1;resizeParentMax=0;resizeLast=0;collapsible=1;marginBottom=0;labelBackgroundColor=none;" parent="WIyWlLk6GJQsqaUBKTNV-1" vertex="1">
          <mxGeometry x="750" y="120" width="161" height="148" as="geometry">
            <mxRectangle x="750" y="120" width="110" height="26" as="alternateBounds" />
          </mxGeometry>
        </mxCell>
        <mxCell id="aZz0crYhpi_2GFQYe-Nl-21" value="- source&#xa;- cache&#xa;- tiles&#xa;+ transform" style="text;strokeColor=none;fillColor=none;align=left;verticalAlign=top;spacingLeft=4;spacingRight=4;overflow=hidden;rotatable=0;points=[[0,0.5],[1,0.5]];portConstraint=eastwest;labelBackgroundColor=none;" parent="aZz0crYhpi_2GFQYe-Nl-20" vertex="1">
          <mxGeometry y="26" width="161" height="70" as="geometry" />
        </mxCell>
        <mxCell id="aZz0crYhpi_2GFQYe-Nl-22" value="" style="line;strokeWidth=1;fillColor=none;align=left;verticalAlign=middle;spacingTop=-1;spacingLeft=3;spacingRight=3;rotatable=0;labelPosition=right;points=[];portConstraint=eastwest;labelBackgroundColor=none;" parent="aZz0crYhpi_2GFQYe-Nl-20" vertex="1">
          <mxGeometry y="96" width="161" height="8" as="geometry" />
        </mxCell>
        <mxCell id="aZz0crYhpi_2GFQYe-Nl-23" value="+ update()&#xa;- addTile()" style="text;strokeColor=none;fillColor=none;align=left;verticalAlign=top;spacingLeft=4;spacingRight=4;overflow=hidden;rotatable=0;points=[[0,0.5],[1,0.5]];portConstraint=eastwest;labelBackgroundColor=none;" parent="aZz0crYhpi_2GFQYe-Nl-20" vertex="1">
          <mxGeometry y="104" width="161" height="44" as="geometry" />
        </mxCell>
        <mxCell id="FlZPNkmP8DWsrbXSqgAE-67" style="edgeStyle=orthogonalEdgeStyle;rounded=0;orthogonalLoop=1;jettySize=auto;html=1;entryX=0.5;entryY=0;entryDx=0;entryDy=0;labelBackgroundColor=none;startArrow=none;startFill=0;endArrow=open;endFill=0;exitX=0.5;exitY=1;exitDx=0;exitDy=0;" parent="WIyWlLk6GJQsqaUBKTNV-1" source="zkfFHV4jXpPFQw0GAbJ--17" target="FlZPNkmP8DWsrbXSqgAE-63" edge="1">
          <mxGeometry relative="1" as="geometry">
            <Array as="points">
              <mxPoint x="570" y="373" />
              <mxPoint x="707" y="373" />
            </Array>
          </mxGeometry>
        </mxCell>
        <mxCell id="zkfFHV4jXpPFQw0GAbJ--17" value="Style" style="swimlane;fontStyle=1;align=center;verticalAlign=top;childLayout=stackLayout;horizontal=1;startSize=26;horizontalStack=0;resizeParent=1;resizeLast=0;collapsible=1;marginBottom=0;rounded=0;shadow=0;strokeWidth=1;labelBackgroundColor=none;" parent="WIyWlLk6GJQsqaUBKTNV-1" vertex="1" collapsed="1">
          <mxGeometry x="490" y="120" width="160" height="26" as="geometry">
            <mxRectangle x="490" y="120" width="180" height="190" as="alternateBounds" />
          </mxGeometry>
        </mxCell>
        <mxCell id="zkfFHV4jXpPFQw0GAbJ--18" value="+ stylesheet:Â StyleSpecification&#xa;" style="text;align=left;verticalAlign=top;spacingLeft=4;spacingRight=4;overflow=hidden;rotatable=0;points=[[0,0.5],[1,0.5]];portConstraint=eastwest;labelBackgroundColor=none;" parent="zkfFHV4jXpPFQw0GAbJ--17" vertex="1">
          <mxGeometry y="26" width="160" height="26" as="geometry" />
        </mxCell>
        <mxCell id="zkfFHV4jXpPFQw0GAbJ--19" value="+ sourceCaches" style="text;align=left;verticalAlign=top;spacingLeft=4;spacingRight=4;overflow=hidden;rotatable=0;points=[[0,0.5],[1,0.5]];portConstraint=eastwest;rounded=0;shadow=0;html=0;labelBackgroundColor=none;" parent="zkfFHV4jXpPFQw0GAbJ--17" vertex="1">
          <mxGeometry y="52" width="160" height="26" as="geometry" />
        </mxCell>
        <mxCell id="FlZPNkmP8DWsrbXSqgAE-156" value="- layers" style="text;align=left;verticalAlign=top;spacingLeft=4;spacingRight=4;overflow=hidden;rotatable=0;points=[[0,0.5],[1,0.5]];portConstraint=eastwest;rounded=0;shadow=0;html=0;labelBackgroundColor=none;" parent="zkfFHV4jXpPFQw0GAbJ--17" vertex="1">
          <mxGeometry y="78" width="160" height="26" as="geometry" />
        </mxCell>
        <mxCell id="zkfFHV4jXpPFQw0GAbJ--25" value="dispatcher" style="text;align=left;verticalAlign=top;spacingLeft=4;spacingRight=4;overflow=hidden;rotatable=0;points=[[0,0.5],[1,0.5]];portConstraint=eastwest;labelBackgroundColor=none;" parent="zkfFHV4jXpPFQw0GAbJ--17" vertex="1">
          <mxGeometry y="104" width="160" height="26" as="geometry" />
        </mxCell>
        <mxCell id="zkfFHV4jXpPFQw0GAbJ--23" value="" style="line;html=1;strokeWidth=1;align=left;verticalAlign=middle;spacingTop=-1;spacingLeft=3;spacingRight=3;rotatable=0;labelPosition=right;points=[];portConstraint=eastwest;labelBackgroundColor=none;" parent="zkfFHV4jXpPFQw0GAbJ--17" vertex="1">
          <mxGeometry y="130" width="160" height="8" as="geometry" />
        </mxCell>
        <mxCell id="zkfFHV4jXpPFQw0GAbJ--24" value="update()" style="text;align=left;verticalAlign=top;spacingLeft=4;spacingRight=4;overflow=hidden;rotatable=0;points=[[0,0.5],[1,0.5]];portConstraint=eastwest;labelBackgroundColor=none;" parent="zkfFHV4jXpPFQw0GAbJ--17" vertex="1">
          <mxGeometry y="138" width="160" height="26" as="geometry" />
        </mxCell>
        <mxCell id="aZz0crYhpi_2GFQYe-Nl-35" value="" style="endArrow=none;html=1;edgeStyle=orthogonalEdgeStyle;exitX=1;exitY=0.5;exitDx=0;exitDy=0;entryX=0;entryY=0.5;entryDx=0;entryDy=0;labelBackgroundColor=none;" parent="WIyWlLk6GJQsqaUBKTNV-1" source="aZz0crYhpi_2GFQYe-Nl-13" target="zkfFHV4jXpPFQw0GAbJ--3" edge="1">
          <mxGeometry relative="1" as="geometry">
            <mxPoint x="133" y="420" as="sourcePoint" />
            <mxPoint x="293" y="420" as="targetPoint" />
          </mxGeometry>
        </mxCell>
        <mxCell id="aZz0crYhpi_2GFQYe-Nl-36" value="1" style="edgeLabel;resizable=0;html=1;align=left;verticalAlign=bottom;labelBackgroundColor=none;" parent="aZz0crYhpi_2GFQYe-Nl-35" connectable="0" vertex="1">
          <mxGeometry x="-1" relative="1" as="geometry" />
        </mxCell>
        <mxCell id="aZz0crYhpi_2GFQYe-Nl-37" value="1" style="edgeLabel;resizable=0;html=1;align=right;verticalAlign=bottom;labelBackgroundColor=none;" parent="aZz0crYhpi_2GFQYe-Nl-35" connectable="0" vertex="1">
          <mxGeometry x="1" relative="1" as="geometry">
            <mxPoint x="-10.07" as="offset" />
          </mxGeometry>
        </mxCell>
        <mxCell id="aZz0crYhpi_2GFQYe-Nl-38" value="" style="endArrow=none;html=1;edgeStyle=orthogonalEdgeStyle;exitX=1;exitY=0.5;exitDx=0;exitDy=0;labelBackgroundColor=none;entryX=0;entryY=0.5;entryDx=0;entryDy=0;" parent="WIyWlLk6GJQsqaUBKTNV-1" source="aZz0crYhpi_2GFQYe-Nl-10" target="zkfFHV4jXpPFQw0GAbJ--3" edge="1">
          <mxGeometry relative="1" as="geometry">
            <mxPoint x="163" y="360" as="sourcePoint" />
            <mxPoint x="243" y="185" as="targetPoint" />
          </mxGeometry>
        </mxCell>
        <mxCell id="aZz0crYhpi_2GFQYe-Nl-39" value="1" style="edgeLabel;resizable=0;html=1;align=left;verticalAlign=bottom;labelBackgroundColor=none;" parent="aZz0crYhpi_2GFQYe-Nl-38" connectable="0" vertex="1">
          <mxGeometry x="-1" relative="1" as="geometry" />
        </mxCell>
        <mxCell id="aZz0crYhpi_2GFQYe-Nl-40" value="1" style="edgeLabel;resizable=0;html=1;align=right;verticalAlign=bottom;labelBackgroundColor=none;" parent="aZz0crYhpi_2GFQYe-Nl-38" connectable="0" vertex="1">
          <mxGeometry x="1" relative="1" as="geometry">
            <mxPoint x="-10.34" as="offset" />
          </mxGeometry>
        </mxCell>
        <mxCell id="aZz0crYhpi_2GFQYe-Nl-41" value="" style="endArrow=none;html=1;edgeStyle=orthogonalEdgeStyle;exitX=1;exitY=0.5;exitDx=0;exitDy=0;entryX=0;entryY=0.5;entryDx=0;entryDy=0;labelBackgroundColor=none;" parent="WIyWlLk6GJQsqaUBKTNV-1" source="zkfFHV4jXpPFQw0GAbJ--2" target="zkfFHV4jXpPFQw0GAbJ--19" edge="1">
          <mxGeometry relative="1" as="geometry">
            <mxPoint x="390" y="190" as="sourcePoint" />
            <mxPoint x="550" y="190" as="targetPoint" />
          </mxGeometry>
        </mxCell>
        <mxCell id="aZz0crYhpi_2GFQYe-Nl-42" value="1" style="edgeLabel;resizable=0;html=1;align=left;verticalAlign=bottom;labelBackgroundColor=none;" parent="aZz0crYhpi_2GFQYe-Nl-41" connectable="0" vertex="1">
          <mxGeometry x="-1" relative="1" as="geometry" />
        </mxCell>
        <mxCell id="aZz0crYhpi_2GFQYe-Nl-43" value="1" style="edgeLabel;resizable=0;html=1;align=right;verticalAlign=bottom;labelBackgroundColor=none;" parent="aZz0crYhpi_2GFQYe-Nl-41" connectable="0" vertex="1">
          <mxGeometry x="1" relative="1" as="geometry" />
        </mxCell>
        <mxCell id="aZz0crYhpi_2GFQYe-Nl-44" value="" style="endArrow=none;html=1;edgeStyle=orthogonalEdgeStyle;exitX=1.005;exitY=0.846;exitDx=0;exitDy=0;exitPerimeter=0;labelBackgroundColor=none;entryX=0;entryY=0.5;entryDx=0;entryDy=0;" parent="WIyWlLk6GJQsqaUBKTNV-1" source="zkfFHV4jXpPFQw0GAbJ--18" edge="1" target="aZz0crYhpi_2GFQYe-Nl-21">
          <mxGeometry relative="1" as="geometry">
            <mxPoint x="700" y="180" as="sourcePoint" />
            <mxPoint x="707" y="199" as="targetPoint" />
          </mxGeometry>
        </mxCell>
        <mxCell id="aZz0crYhpi_2GFQYe-Nl-45" value="1" style="edgeLabel;resizable=0;html=1;align=left;verticalAlign=bottom;labelBackgroundColor=none;" parent="aZz0crYhpi_2GFQYe-Nl-44" connectable="0" vertex="1">
          <mxGeometry x="-1" relative="1" as="geometry" />
        </mxCell>
        <mxCell id="aZz0crYhpi_2GFQYe-Nl-46" value="&lt;font style=&quot;font-size: 15px&quot;&gt;*&lt;/font&gt;" style="edgeLabel;resizable=0;html=1;align=right;verticalAlign=bottom;labelBackgroundColor=none;" parent="aZz0crYhpi_2GFQYe-Nl-44" connectable="0" vertex="1">
          <mxGeometry x="1" relative="1" as="geometry">
            <mxPoint x="-4.9" y="4" as="offset" />
          </mxGeometry>
        </mxCell>
        <mxCell id="aZz0crYhpi_2GFQYe-Nl-55" value="" style="endArrow=open;html=1;edgeStyle=orthogonalEdgeStyle;exitX=0.994;exitY=0.151;exitDx=0;exitDy=0;exitPerimeter=0;entryX=-0.007;entryY=0.348;entryDx=0;entryDy=0;labelBackgroundColor=none;endFill=0;entryPerimeter=0;" parent="WIyWlLk6GJQsqaUBKTNV-1" source="aZz0crYhpi_2GFQYe-Nl-20" target="FlZPNkmP8DWsrbXSqgAE-46" edge="1">
          <mxGeometry relative="1" as="geometry">
            <mxPoint x="940" y="180" as="sourcePoint" />
            <mxPoint x="980" y="133" as="targetPoint" />
          </mxGeometry>
        </mxCell>
        <mxCell id="aZz0crYhpi_2GFQYe-Nl-68" value="" style="endArrow=none;html=1;edgeStyle=orthogonalEdgeStyle;exitX=1;exitY=0.5;exitDx=0;exitDy=0;entryX=0.5;entryY=0;entryDx=0;entryDy=0;startArrow=open;startFill=0;labelBackgroundColor=none;" parent="WIyWlLk6GJQsqaUBKTNV-1" source="aZz0crYhpi_2GFQYe-Nl-58" target="aZz0crYhpi_2GFQYe-Nl-20" edge="1">
          <mxGeometry relative="1" as="geometry">
            <mxPoint x="700" y="40" as="sourcePoint" />
            <mxPoint x="860" y="40" as="targetPoint" />
          </mxGeometry>
        </mxCell>
        <mxCell id="aZz0crYhpi_2GFQYe-Nl-71" value="" style="endArrow=none;html=1;edgeStyle=orthogonalEdgeStyle;entryX=0.5;entryY=0;entryDx=0;entryDy=0;exitX=1;exitY=0.5;exitDx=0;exitDy=0;startArrow=open;startFill=0;labelBackgroundColor=none;" parent="WIyWlLk6GJQsqaUBKTNV-1" source="aZz0crYhpi_2GFQYe-Nl-58" target="FlZPNkmP8DWsrbXSqgAE-46" edge="1">
          <mxGeometry relative="1" as="geometry">
            <mxPoint x="620" y="20" as="sourcePoint" />
            <mxPoint x="1035" y="113" as="targetPoint" />
          </mxGeometry>
        </mxCell>
        <mxCell id="aZz0crYhpi_2GFQYe-Nl-78" value="" style="endArrow=block;html=1;edgeStyle=orthogonalEdgeStyle;entryX=0.5;entryY=1;entryDx=0;entryDy=0;exitX=0.5;exitY=0;exitDx=0;exitDy=0;labelBackgroundColor=none;endFill=0;" parent="WIyWlLk6GJQsqaUBKTNV-1" source="zkfFHV4jXpPFQw0GAbJ--0" target="aZz0crYhpi_2GFQYe-Nl-74" edge="1">
          <mxGeometry relative="1" as="geometry">
            <mxPoint x="333" y="46" as="sourcePoint" />
            <mxPoint x="543" y="33" as="targetPoint" />
          </mxGeometry>
        </mxCell>
        <mxCell id="aZz0crYhpi_2GFQYe-Nl-86" style="edgeStyle=orthogonalEdgeStyle;rounded=0;orthogonalLoop=1;jettySize=auto;html=1;exitX=0.5;exitY=0;exitDx=0;exitDy=0;labelBackgroundColor=none;startArrow=none;startFill=0;endArrow=block;endFill=0;dashed=1;entryX=0.5;entryY=1;entryDx=0;entryDy=0;" parent="WIyWlLk6GJQsqaUBKTNV-1" source="aZz0crYhpi_2GFQYe-Nl-82" target="FlZPNkmP8DWsrbXSqgAE-46" edge="1">
          <mxGeometry relative="1" as="geometry">
            <mxPoint x="1150" y="167" as="targetPoint" />
          </mxGeometry>
        </mxCell>
        <mxCell id="aZz0crYhpi_2GFQYe-Nl-115" value="" style="endArrow=open;html=1;exitX=0.488;exitY=1.038;exitDx=0;exitDy=0;exitPerimeter=0;entryX=0.5;entryY=0;entryDx=0;entryDy=0;labelBackgroundColor=none;endFill=0;" parent="WIyWlLk6GJQsqaUBKTNV-1" source="aZz0crYhpi_2GFQYe-Nl-23" target="aZz0crYhpi_2GFQYe-Nl-107" edge="1">
          <mxGeometry relative="1" as="geometry">
            <mxPoint x="919.04" y="142.986" as="sourcePoint" />
            <mxPoint x="990" y="143" as="targetPoint" />
          </mxGeometry>
        </mxCell>
        <mxCell id="FlZPNkmP8DWsrbXSqgAE-4" value="Â«interfaceÂ»&lt;br&gt;&lt;span style=&quot;font-weight: 700&quot;&gt;Bucket&lt;/span&gt;" style="html=1;labelBackgroundColor=none;" parent="WIyWlLk6GJQsqaUBKTNV-1" vertex="1">
          <mxGeometry x="-37" y="414" width="110" height="50" as="geometry" />
        </mxCell>
        <mxCell id="FlZPNkmP8DWsrbXSqgAE-17" style="edgeStyle=orthogonalEdgeStyle;rounded=0;orthogonalLoop=1;jettySize=auto;html=1;labelBackgroundColor=none;startArrow=none;startFill=0;endArrow=open;endFill=0;entryX=0.5;entryY=0;entryDx=0;entryDy=0;" parent="WIyWlLk6GJQsqaUBKTNV-1" source="FlZPNkmP8DWsrbXSqgAE-13" target="FlZPNkmP8DWsrbXSqgAE-176" edge="1">
          <mxGeometry relative="1" as="geometry">
            <mxPoint x="394" y="609" as="targetPoint" />
          </mxGeometry>
        </mxCell>
        <mxCell id="FlZPNkmP8DWsrbXSqgAE-26" style="edgeStyle=orthogonalEdgeStyle;rounded=0;orthogonalLoop=1;jettySize=auto;html=1;entryX=0.5;entryY=0;entryDx=0;entryDy=0;labelBackgroundColor=none;startArrow=none;startFill=0;endArrow=open;endFill=0;exitX=0.5;exitY=1;exitDx=0;exitDy=0;" parent="WIyWlLk6GJQsqaUBKTNV-1" source="FlZPNkmP8DWsrbXSqgAE-176" target="FlZPNkmP8DWsrbXSqgAE-9" edge="1">
          <mxGeometry relative="1" as="geometry">
            <mxPoint x="454.0588235294117" y="640" as="sourcePoint" />
          </mxGeometry>
        </mxCell>
        <mxCell id="FlZPNkmP8DWsrbXSqgAE-32" value="&lt;div style=&quot;color: rgb(212 , 212 , 212) ; background-color: rgb(30 , 30 , 30) ; font-family: &amp;#34;menlo&amp;#34; , &amp;#34;monaco&amp;#34; , &amp;#34;courier new&amp;#34; , monospace ; font-weight: normal ; font-size: 14px ; line-height: 21px&quot;&gt;&lt;br&gt;&lt;/div&gt;" style="text;whiteSpace=wrap;html=1;" parent="WIyWlLk6GJQsqaUBKTNV-1" vertex="1">
          <mxGeometry x="494" y="760" width="210" height="40" as="geometry" />
        </mxCell>
        <mxCell id="FlZPNkmP8DWsrbXSqgAE-42" value="&lt;b&gt;ConstantExpression&lt;/b&gt;" style="html=1;" parent="WIyWlLk6GJQsqaUBKTNV-1" vertex="1">
          <mxGeometry x="166" y="800" width="137" height="34" as="geometry" />
        </mxCell>
        <mxCell id="FlZPNkmP8DWsrbXSqgAE-43" value="&lt;b&gt;SourceExpression&lt;/b&gt;" style="html=1;" parent="WIyWlLk6GJQsqaUBKTNV-1" vertex="1">
          <mxGeometry x="311.5" y="802" width="135" height="32" as="geometry" />
        </mxCell>
        <mxCell id="FlZPNkmP8DWsrbXSqgAE-44" value="&lt;b&gt;CompositeExpression&lt;/b&gt;" style="html=1;" parent="WIyWlLk6GJQsqaUBKTNV-1" vertex="1">
          <mxGeometry x="615" y="801" width="135" height="32" as="geometry" />
        </mxCell>
        <mxCell id="FlZPNkmP8DWsrbXSqgAE-55" style="edgeStyle=orthogonalEdgeStyle;rounded=0;orthogonalLoop=1;jettySize=auto;html=1;exitX=-0.011;exitY=0.661;exitDx=0;exitDy=0;entryX=0.5;entryY=0;entryDx=0;entryDy=0;labelBackgroundColor=none;startArrow=none;startFill=0;endArrow=open;endFill=0;exitPerimeter=0;" parent="WIyWlLk6GJQsqaUBKTNV-1" source="FlZPNkmP8DWsrbXSqgAE-46" target="aZz0crYhpi_2GFQYe-Nl-99" edge="1">
          <mxGeometry relative="1" as="geometry" />
        </mxCell>
        <mxCell id="FlZPNkmP8DWsrbXSqgAE-46" value="&lt;p style=&quot;margin: 0px ; margin-top: 4px ; text-align: center&quot;&gt;&lt;i&gt;&amp;lt;&amp;lt;Interface&amp;gt;&amp;gt;&lt;/i&gt;&lt;br&gt;&lt;b&gt;Source&lt;/b&gt;&lt;/p&gt;&lt;hr size=&quot;1&quot;&gt;&lt;p style=&quot;margin: 0px ; margin-left: 4px&quot;&gt;+ field1: Type&lt;br&gt;+ field2: Type&lt;/p&gt;&lt;hr size=&quot;1&quot;&gt;&lt;p style=&quot;margin: 0px ; margin-left: 4px&quot;&gt;+ loadTile()&lt;/p&gt;" style="verticalAlign=top;align=left;overflow=fill;fontSize=12;fontFamily=Helvetica;html=1;" parent="WIyWlLk6GJQsqaUBKTNV-1" vertex="1">
          <mxGeometry x="1081.5" y="102" width="137" height="112" as="geometry" />
        </mxCell>
        <mxCell id="FlZPNkmP8DWsrbXSqgAE-47" style="edgeStyle=orthogonalEdgeStyle;rounded=0;orthogonalLoop=1;jettySize=auto;html=1;entryX=0.5;entryY=0;entryDx=0;entryDy=0;labelBackgroundColor=none;startArrow=none;startFill=0;endArrow=open;endFill=0;exitX=1;exitY=0.5;exitDx=0;exitDy=0;" parent="WIyWlLk6GJQsqaUBKTNV-1" source="aZz0crYhpi_2GFQYe-Nl-21" target="aZz0crYhpi_2GFQYe-Nl-99" edge="1">
          <mxGeometry relative="1" as="geometry" />
        </mxCell>
        <mxCell id="aZz0crYhpi_2GFQYe-Nl-82" value="VectorTileSource" style="swimlane;fontStyle=1;align=center;verticalAlign=top;childLayout=stackLayout;horizontal=1;startSize=26;horizontalStack=0;resizeParent=1;resizeParentMax=0;resizeLast=0;collapsible=1;marginBottom=0;labelBackgroundColor=none;" parent="WIyWlLk6GJQsqaUBKTNV-1" vertex="1" collapsed="1">
          <mxGeometry x="1080" y="264" width="140" height="26" as="geometry">
            <mxRectangle x="960" y="124" width="160" height="86" as="alternateBounds" />
          </mxGeometry>
        </mxCell>
        <mxCell id="aZz0crYhpi_2GFQYe-Nl-83" value="+ field: type" style="text;strokeColor=none;fillColor=none;align=left;verticalAlign=top;spacingLeft=4;spacingRight=4;overflow=hidden;rotatable=0;points=[[0,0.5],[1,0.5]];portConstraint=eastwest;" parent="aZz0crYhpi_2GFQYe-Nl-82" vertex="1">
          <mxGeometry y="26" width="140" height="26" as="geometry" />
        </mxCell>
        <mxCell id="aZz0crYhpi_2GFQYe-Nl-84" value="" style="line;strokeWidth=1;fillColor=none;align=left;verticalAlign=middle;spacingTop=-1;spacingLeft=3;spacingRight=3;rotatable=0;labelPosition=right;points=[];portConstraint=eastwest;" parent="aZz0crYhpi_2GFQYe-Nl-82" vertex="1">
          <mxGeometry y="52" width="140" height="8" as="geometry" />
        </mxCell>
        <mxCell id="aZz0crYhpi_2GFQYe-Nl-85" value="+ method(type): type" style="text;strokeColor=none;fillColor=none;align=left;verticalAlign=top;spacingLeft=4;spacingRight=4;overflow=hidden;rotatable=0;points=[[0,0.5],[1,0.5]];portConstraint=eastwest;" parent="aZz0crYhpi_2GFQYe-Nl-82" vertex="1">
          <mxGeometry y="60" width="140" height="26" as="geometry" />
        </mxCell>
        <mxCell id="aZz0crYhpi_2GFQYe-Nl-87" value="GeoJSONSource" style="swimlane;fontStyle=1;align=center;verticalAlign=top;childLayout=stackLayout;horizontal=1;startSize=26;horizontalStack=0;resizeParent=1;resizeParentMax=0;resizeLast=0;collapsible=1;marginBottom=0;labelBackgroundColor=none;" parent="WIyWlLk6GJQsqaUBKTNV-1" vertex="1" collapsed="1">
          <mxGeometry x="1080" y="332" width="140" height="26" as="geometry">
            <mxRectangle x="960" y="124" width="160" height="86" as="alternateBounds" />
          </mxGeometry>
        </mxCell>
        <mxCell id="aZz0crYhpi_2GFQYe-Nl-88" value="+ field: type" style="text;strokeColor=none;fillColor=none;align=left;verticalAlign=top;spacingLeft=4;spacingRight=4;overflow=hidden;rotatable=0;points=[[0,0.5],[1,0.5]];portConstraint=eastwest;" parent="aZz0crYhpi_2GFQYe-Nl-87" vertex="1">
          <mxGeometry y="26" width="140" height="26" as="geometry" />
        </mxCell>
        <mxCell id="aZz0crYhpi_2GFQYe-Nl-89" value="" style="line;strokeWidth=1;fillColor=none;align=left;verticalAlign=middle;spacingTop=-1;spacingLeft=3;spacingRight=3;rotatable=0;labelPosition=right;points=[];portConstraint=eastwest;" parent="aZz0crYhpi_2GFQYe-Nl-87" vertex="1">
          <mxGeometry y="52" width="140" height="8" as="geometry" />
        </mxCell>
        <mxCell id="aZz0crYhpi_2GFQYe-Nl-90" value="+ method(type): type" style="text;strokeColor=none;fillColor=none;align=left;verticalAlign=top;spacingLeft=4;spacingRight=4;overflow=hidden;rotatable=0;points=[[0,0.5],[1,0.5]];portConstraint=eastwest;" parent="aZz0crYhpi_2GFQYe-Nl-87" vertex="1">
          <mxGeometry y="60" width="140" height="26" as="geometry" />
        </mxCell>
        <mxCell id="aZz0crYhpi_2GFQYe-Nl-91" value="RasterTileSource" style="swimlane;fontStyle=1;align=center;verticalAlign=top;childLayout=stackLayout;horizontal=1;startSize=26;horizontalStack=0;resizeParent=1;resizeParentMax=0;resizeLast=0;collapsible=1;marginBottom=0;labelBackgroundColor=none;" parent="WIyWlLk6GJQsqaUBKTNV-1" vertex="1" collapsed="1">
          <mxGeometry x="1080" y="298" width="140" height="26" as="geometry">
            <mxRectangle x="960" y="124" width="160" height="86" as="alternateBounds" />
          </mxGeometry>
        </mxCell>
        <mxCell id="aZz0crYhpi_2GFQYe-Nl-92" value="+ field: type" style="text;strokeColor=none;fillColor=none;align=left;verticalAlign=top;spacingLeft=4;spacingRight=4;overflow=hidden;rotatable=0;points=[[0,0.5],[1,0.5]];portConstraint=eastwest;" parent="aZz0crYhpi_2GFQYe-Nl-91" vertex="1">
          <mxGeometry y="26" width="140" height="26" as="geometry" />
        </mxCell>
        <mxCell id="aZz0crYhpi_2GFQYe-Nl-93" value="" style="line;strokeWidth=1;fillColor=none;align=left;verticalAlign=middle;spacingTop=-1;spacingLeft=3;spacingRight=3;rotatable=0;labelPosition=right;points=[];portConstraint=eastwest;" parent="aZz0crYhpi_2GFQYe-Nl-91" vertex="1">
          <mxGeometry y="52" width="140" height="8" as="geometry" />
        </mxCell>
        <mxCell id="aZz0crYhpi_2GFQYe-Nl-94" value="+ method(type): type" style="text;strokeColor=none;fillColor=none;align=left;verticalAlign=top;spacingLeft=4;spacingRight=4;overflow=hidden;rotatable=0;points=[[0,0.5],[1,0.5]];portConstraint=eastwest;" parent="aZz0crYhpi_2GFQYe-Nl-91" vertex="1">
          <mxGeometry y="60" width="140" height="26" as="geometry" />
        </mxCell>
        <mxCell id="FlZPNkmP8DWsrbXSqgAE-57" style="edgeStyle=orthogonalEdgeStyle;rounded=0;orthogonalLoop=1;jettySize=auto;html=1;entryX=0.5;entryY=0;entryDx=0;entryDy=0;labelBackgroundColor=none;startArrow=none;startFill=0;endArrow=open;endFill=0;" parent="WIyWlLk6GJQsqaUBKTNV-1" source="aZz0crYhpi_2GFQYe-Nl-99" target="FlZPNkmP8DWsrbXSqgAE-51" edge="1">
          <mxGeometry relative="1" as="geometry" />
        </mxCell>
        <mxCell id="FlZPNkmP8DWsrbXSqgAE-58" value="0..1" style="text;html=1;align=center;verticalAlign=middle;resizable=0;points=[];autosize=1;" parent="WIyWlLk6GJQsqaUBKTNV-1" vertex="1">
          <mxGeometry x="999" y="458" width="30" height="18" as="geometry" />
        </mxCell>
        <mxCell id="FlZPNkmP8DWsrbXSqgAE-69" style="edgeStyle=orthogonalEdgeStyle;rounded=0;orthogonalLoop=1;jettySize=auto;html=1;entryX=0;entryY=0.5;entryDx=0;entryDy=0;labelBackgroundColor=none;startArrow=none;startFill=0;endArrow=open;endFill=0;exitX=1;exitY=0.5;exitDx=0;exitDy=0;" parent="WIyWlLk6GJQsqaUBKTNV-1" source="FlZPNkmP8DWsrbXSqgAE-64" target="FlZPNkmP8DWsrbXSqgAE-51" edge="1">
          <mxGeometry relative="1" as="geometry" />
        </mxCell>
        <mxCell id="FlZPNkmP8DWsrbXSqgAE-70" value="1" style="text;html=1;align=center;verticalAlign=middle;resizable=0;points=[];autosize=1;" parent="WIyWlLk6GJQsqaUBKTNV-1" vertex="1">
          <mxGeometry x="584" y="296" width="17" height="18" as="geometry" />
        </mxCell>
        <mxCell id="FlZPNkmP8DWsrbXSqgAE-71" value="1" style="text;html=1;align=center;verticalAlign=middle;resizable=0;points=[];autosize=1;" parent="WIyWlLk6GJQsqaUBKTNV-1" vertex="1">
          <mxGeometry x="680" y="467" width="17" height="18" as="geometry" />
        </mxCell>
        <mxCell id="FlZPNkmP8DWsrbXSqgAE-72" value="1" style="text;html=1;align=center;verticalAlign=middle;resizable=0;points=[];autosize=1;" parent="WIyWlLk6GJQsqaUBKTNV-1" vertex="1">
          <mxGeometry x="407" y="-25" width="17" height="18" as="geometry" />
        </mxCell>
        <mxCell id="FlZPNkmP8DWsrbXSqgAE-73" value="1" style="text;html=1;align=center;verticalAlign=middle;resizable=0;points=[];autosize=1;" parent="WIyWlLk6GJQsqaUBKTNV-1" vertex="1">
          <mxGeometry x="484" y="-26" width="17" height="18" as="geometry" />
        </mxCell>
        <mxCell id="FlZPNkmP8DWsrbXSqgAE-74" value="1" style="text;html=1;align=center;verticalAlign=middle;resizable=0;points=[];autosize=1;" parent="WIyWlLk6GJQsqaUBKTNV-1" vertex="1">
          <mxGeometry x="908" y="160" width="17" height="18" as="geometry" />
        </mxCell>
        <mxCell id="FlZPNkmP8DWsrbXSqgAE-75" value="&lt;font style=&quot;font-size: 15px&quot;&gt;*&lt;/font&gt;" style="text;html=1;align=center;verticalAlign=middle;resizable=0;points=[];autosize=1;" parent="WIyWlLk6GJQsqaUBKTNV-1" vertex="1">
          <mxGeometry x="974" y="381" width="16" height="19" as="geometry" />
        </mxCell>
        <mxCell id="FlZPNkmP8DWsrbXSqgAE-84" style="edgeStyle=orthogonalEdgeStyle;rounded=0;orthogonalLoop=1;jettySize=auto;html=1;entryX=0.5;entryY=0;entryDx=0;entryDy=0;labelBackgroundColor=none;startArrow=none;startFill=0;endArrow=open;endFill=0;" parent="WIyWlLk6GJQsqaUBKTNV-1" source="FlZPNkmP8DWsrbXSqgAE-51" target="FlZPNkmP8DWsrbXSqgAE-76" edge="1">
          <mxGeometry relative="1" as="geometry" />
        </mxCell>
        <mxCell id="FlZPNkmP8DWsrbXSqgAE-51" value="Actor" style="swimlane;fontStyle=1;align=center;verticalAlign=top;childLayout=stackLayout;horizontal=1;startSize=26;horizontalStack=0;resizeParent=1;resizeParentMax=0;resizeLast=0;collapsible=1;marginBottom=0;labelBackgroundColor=none;" parent="WIyWlLk6GJQsqaUBKTNV-1" vertex="1">
          <mxGeometry x="915.5" y="485" width="160" height="112" as="geometry">
            <mxRectangle x="951" y="467" width="89" height="26" as="alternateBounds" />
          </mxGeometry>
        </mxCell>
        <mxCell id="FlZPNkmP8DWsrbXSqgAE-52" value="+ target: any(Worker)Â " style="text;strokeColor=none;fillColor=none;align=left;verticalAlign=top;spacingLeft=4;spacingRight=4;overflow=hidden;rotatable=0;points=[[0,0.5],[1,0.5]];portConstraint=eastwest;" parent="FlZPNkmP8DWsrbXSqgAE-51" vertex="1">
          <mxGeometry y="26" width="160" height="26" as="geometry" />
        </mxCell>
        <mxCell id="FlZPNkmP8DWsrbXSqgAE-53" value="" style="line;strokeWidth=1;fillColor=none;align=left;verticalAlign=middle;spacingTop=-1;spacingLeft=3;spacingRight=3;rotatable=0;labelPosition=right;points=[];portConstraint=eastwest;" parent="FlZPNkmP8DWsrbXSqgAE-51" vertex="1">
          <mxGeometry y="52" width="160" height="8" as="geometry" />
        </mxCell>
        <mxCell id="FlZPNkmP8DWsrbXSqgAE-54" value="+ send():Â serialize" style="text;strokeColor=none;fillColor=none;align=left;verticalAlign=top;spacingLeft=4;spacingRight=4;overflow=hidden;rotatable=0;points=[[0,0.5],[1,0.5]];portConstraint=eastwest;" parent="FlZPNkmP8DWsrbXSqgAE-51" vertex="1">
          <mxGeometry y="60" width="160" height="26" as="geometry" />
        </mxCell>
        <mxCell id="FlZPNkmP8DWsrbXSqgAE-91" value="+ receive():Â deserialize" style="text;strokeColor=none;fillColor=none;align=left;verticalAlign=top;spacingLeft=4;spacingRight=4;overflow=hidden;rotatable=0;points=[[0,0.5],[1,0.5]];portConstraint=eastwest;" parent="FlZPNkmP8DWsrbXSqgAE-51" vertex="1">
          <mxGeometry y="86" width="160" height="26" as="geometry" />
        </mxCell>
        <mxCell id="FlZPNkmP8DWsrbXSqgAE-80" style="rounded=0;orthogonalLoop=1;jettySize=auto;html=1;entryX=0;entryY=0.5;entryDx=0;entryDy=0;labelBackgroundColor=none;startArrow=none;startFill=0;endArrow=open;endFill=0;edgeStyle=orthogonalEdgeStyle;" parent="WIyWlLk6GJQsqaUBKTNV-1" source="FlZPNkmP8DWsrbXSqgAE-64" target="FlZPNkmP8DWsrbXSqgAE-76" edge="1">
          <mxGeometry relative="1" as="geometry" />
        </mxCell>
        <mxCell id="FlZPNkmP8DWsrbXSqgAE-81" value="1" style="text;html=1;align=center;verticalAlign=middle;resizable=0;points=[];autosize=1;" parent="WIyWlLk6GJQsqaUBKTNV-1" vertex="1">
          <mxGeometry x="787" y="521" width="17" height="18" as="geometry" />
        </mxCell>
        <mxCell id="FlZPNkmP8DWsrbXSqgAE-82" value="&lt;font style=&quot;font-size: 12px&quot;&gt;N&lt;/font&gt;" style="text;html=1;align=center;verticalAlign=middle;resizable=0;points=[];autosize=1;" parent="WIyWlLk6GJQsqaUBKTNV-1" vertex="1">
          <mxGeometry x="890" y="514.5" width="19" height="18" as="geometry" />
        </mxCell>
        <mxCell id="FlZPNkmP8DWsrbXSqgAE-83" value="&lt;font style=&quot;font-size: 12px&quot;&gt;N&lt;/font&gt;" style="text;html=1;align=center;verticalAlign=middle;resizable=0;points=[];autosize=1;" parent="WIyWlLk6GJQsqaUBKTNV-1" vertex="1">
          <mxGeometry x="889" y="681" width="19" height="18" as="geometry" />
        </mxCell>
        <mxCell id="FlZPNkmP8DWsrbXSqgAE-85" value="1" style="text;html=1;align=center;verticalAlign=middle;resizable=0;points=[];autosize=1;" parent="WIyWlLk6GJQsqaUBKTNV-1" vertex="1">
          <mxGeometry x="999" y="629" width="17" height="18" as="geometry" />
        </mxCell>
        <mxCell id="FlZPNkmP8DWsrbXSqgAE-86" value="1" style="text;html=1;align=center;verticalAlign=middle;resizable=0;points=[];autosize=1;" parent="WIyWlLk6GJQsqaUBKTNV-1" vertex="1">
          <mxGeometry x="996" y="599" width="17" height="18" as="geometry" />
        </mxCell>
        <mxCell id="FlZPNkmP8DWsrbXSqgAE-125" style="edgeStyle=orthogonalEdgeStyle;rounded=0;orthogonalLoop=1;jettySize=auto;html=1;entryX=0.5;entryY=0;entryDx=0;entryDy=0;labelBackgroundColor=none;startArrow=none;startFill=0;endArrow=none;endFill=0;" parent="WIyWlLk6GJQsqaUBKTNV-1" source="FlZPNkmP8DWsrbXSqgAE-76" target="FlZPNkmP8DWsrbXSqgAE-120" edge="1">
          <mxGeometry relative="1" as="geometry" />
        </mxCell>
        <mxCell id="FlZPNkmP8DWsrbXSqgAE-96" value="" style="line;strokeWidth=1;fillColor=none;align=left;verticalAlign=middle;spacingTop=-1;spacingLeft=3;spacingRight=3;rotatable=0;labelPosition=right;points=[];portConstraint=eastwest;html=1;dashed=1;" parent="WIyWlLk6GJQsqaUBKTNV-1" vertex="1">
          <mxGeometry x="777" y="658" width="664" height="8" as="geometry" />
        </mxCell>
        <mxCell id="FlZPNkmP8DWsrbXSqgAE-144" style="edgeStyle=orthogonalEdgeStyle;rounded=0;orthogonalLoop=1;jettySize=auto;html=1;entryX=0;entryY=0.5;entryDx=0;entryDy=0;labelBackgroundColor=none;startArrow=none;startFill=0;endArrow=open;endFill=0;" parent="WIyWlLk6GJQsqaUBKTNV-1" source="FlZPNkmP8DWsrbXSqgAE-101" target="FlZPNkmP8DWsrbXSqgAE-139" edge="1">
          <mxGeometry relative="1" as="geometry" />
        </mxCell>
        <mxCell id="FlZPNkmP8DWsrbXSqgAE-101" value="&lt;p style=&quot;margin: 0px ; margin-top: 4px ; text-align: center&quot;&gt;&lt;i&gt;&amp;lt;&amp;lt;Interface&amp;gt;&amp;gt;&lt;/i&gt;&lt;br&gt;&lt;b&gt;WorkerSource&lt;/b&gt;&lt;/p&gt;&lt;hr size=&quot;1&quot;&gt;&lt;p style=&quot;margin: 0px ; margin-left: 4px&quot;&gt;+ field1: Type&lt;br&gt;+ field2: Type&lt;/p&gt;&lt;hr size=&quot;1&quot;&gt;&lt;p style=&quot;margin: 0px ; margin-left: 4px&quot;&gt;+ loadTile()&lt;/p&gt;&lt;p style=&quot;margin: 0px ; margin-left: 4px&quot;&gt;&lt;br&gt;&lt;/p&gt;" style="verticalAlign=top;align=left;overflow=fill;fontSize=12;fontFamily=Helvetica;html=1;" parent="WIyWlLk6GJQsqaUBKTNV-1" vertex="1">
          <mxGeometry x="1136" y="711" width="148" height="114" as="geometry" />
        </mxCell>
        <mxCell id="FlZPNkmP8DWsrbXSqgAE-126" value="1" style="text;html=1;align=center;verticalAlign=middle;resizable=0;points=[];autosize=1;" parent="WIyWlLk6GJQsqaUBKTNV-1" vertex="1">
          <mxGeometry x="999" y="764" width="17" height="18" as="geometry" />
        </mxCell>
        <mxCell id="FlZPNkmP8DWsrbXSqgAE-127" value="1" style="text;html=1;align=center;verticalAlign=middle;resizable=0;points=[];autosize=1;" parent="WIyWlLk6GJQsqaUBKTNV-1" vertex="1">
          <mxGeometry x="999" y="787" width="17" height="18" as="geometry" />
        </mxCell>
        <mxCell id="FlZPNkmP8DWsrbXSqgAE-76" value="Worker" style="swimlane;fontStyle=1;align=center;verticalAlign=top;childLayout=stackLayout;horizontal=1;startSize=26;horizontalStack=0;resizeParent=1;resizeParentMax=0;resizeLast=0;collapsible=1;marginBottom=0;labelBackgroundColor=none;" parent="WIyWlLk6GJQsqaUBKTNV-1" vertex="1">
          <mxGeometry x="915.5" y="651" width="159.5" height="114" as="geometry">
            <mxRectangle x="951" y="647" width="89" height="26" as="alternateBounds" />
          </mxGeometry>
        </mxCell>
        <mxCell id="FlZPNkmP8DWsrbXSqgAE-77" value="+ actor&#xa;+Â workerSources" style="text;strokeColor=none;fillColor=none;align=left;verticalAlign=top;spacingLeft=4;spacingRight=4;overflow=hidden;rotatable=0;points=[[0,0.5],[1,0.5]];portConstraint=eastwest;" parent="FlZPNkmP8DWsrbXSqgAE-76" vertex="1">
          <mxGeometry y="26" width="159.5" height="41" as="geometry" />
        </mxCell>
        <mxCell id="FlZPNkmP8DWsrbXSqgAE-78" value="" style="line;strokeWidth=1;fillColor=none;align=left;verticalAlign=middle;spacingTop=-1;spacingLeft=3;spacingRight=3;rotatable=0;labelPosition=right;points=[];portConstraint=eastwest;" parent="FlZPNkmP8DWsrbXSqgAE-76" vertex="1">
          <mxGeometry y="67" width="159.5" height="8" as="geometry" />
        </mxCell>
        <mxCell id="FlZPNkmP8DWsrbXSqgAE-79" value="+ loadTile(TileParams)&#xa;+Â registerWorkerSource()" style="text;strokeColor=none;fillColor=none;align=left;verticalAlign=top;spacingLeft=4;spacingRight=4;overflow=hidden;rotatable=0;points=[[0,0.5],[1,0.5]];portConstraint=eastwest;" parent="FlZPNkmP8DWsrbXSqgAE-76" vertex="1">
          <mxGeometry y="75" width="159.5" height="39" as="geometry" />
        </mxCell>
        <mxCell id="FlZPNkmP8DWsrbXSqgAE-120" value="Actor" style="swimlane;fontStyle=1;align=center;verticalAlign=top;childLayout=stackLayout;horizontal=1;startSize=26;horizontalStack=0;resizeParent=1;resizeParentMax=0;resizeLast=0;collapsible=1;marginBottom=0;labelBackgroundColor=none;" parent="WIyWlLk6GJQsqaUBKTNV-1" vertex="1">
          <mxGeometry x="915.5" y="810" width="160" height="112" as="geometry">
            <mxRectangle x="951" y="467" width="89" height="26" as="alternateBounds" />
          </mxGeometry>
        </mxCell>
        <mxCell id="FlZPNkmP8DWsrbXSqgAE-121" value="+ target: any(Worker)Â " style="text;strokeColor=none;fillColor=none;align=left;verticalAlign=top;spacingLeft=4;spacingRight=4;overflow=hidden;rotatable=0;points=[[0,0.5],[1,0.5]];portConstraint=eastwest;" parent="FlZPNkmP8DWsrbXSqgAE-120" vertex="1">
          <mxGeometry y="26" width="160" height="26" as="geometry" />
        </mxCell>
        <mxCell id="FlZPNkmP8DWsrbXSqgAE-122" value="" style="line;strokeWidth=1;fillColor=none;align=left;verticalAlign=middle;spacingTop=-1;spacingLeft=3;spacingRight=3;rotatable=0;labelPosition=right;points=[];portConstraint=eastwest;" parent="FlZPNkmP8DWsrbXSqgAE-120" vertex="1">
          <mxGeometry y="52" width="160" height="8" as="geometry" />
        </mxCell>
        <mxCell id="FlZPNkmP8DWsrbXSqgAE-123" value="+ send()" style="text;strokeColor=none;fillColor=none;align=left;verticalAlign=top;spacingLeft=4;spacingRight=4;overflow=hidden;rotatable=0;points=[[0,0.5],[1,0.5]];portConstraint=eastwest;" parent="FlZPNkmP8DWsrbXSqgAE-120" vertex="1">
          <mxGeometry y="60" width="160" height="26" as="geometry" />
        </mxCell>
        <mxCell id="FlZPNkmP8DWsrbXSqgAE-124" value="+ receive()" style="text;strokeColor=none;fillColor=none;align=left;verticalAlign=top;spacingLeft=4;spacingRight=4;overflow=hidden;rotatable=0;points=[[0,0.5],[1,0.5]];portConstraint=eastwest;" parent="FlZPNkmP8DWsrbXSqgAE-120" vertex="1">
          <mxGeometry y="86" width="160" height="26" as="geometry" />
        </mxCell>
        <mxCell id="FlZPNkmP8DWsrbXSqgAE-128" style="edgeStyle=orthogonalEdgeStyle;rounded=0;orthogonalLoop=1;jettySize=auto;html=1;exitX=1;exitY=0.5;exitDx=0;exitDy=0;labelBackgroundColor=none;startArrow=none;startFill=0;endArrow=none;endFill=0;" parent="WIyWlLk6GJQsqaUBKTNV-1" source="FlZPNkmP8DWsrbXSqgAE-77" target="FlZPNkmP8DWsrbXSqgAE-101" edge="1">
          <mxGeometry relative="1" as="geometry" />
        </mxCell>
        <mxCell id="FlZPNkmP8DWsrbXSqgAE-137" style="edgeStyle=orthogonalEdgeStyle;rounded=0;orthogonalLoop=1;jettySize=auto;html=1;entryX=0.5;entryY=1;entryDx=0;entryDy=0;labelBackgroundColor=none;startArrow=none;startFill=0;endArrow=block;endFill=0;dashed=1;" parent="WIyWlLk6GJQsqaUBKTNV-1" source="FlZPNkmP8DWsrbXSqgAE-116" target="FlZPNkmP8DWsrbXSqgAE-101" edge="1">
          <mxGeometry relative="1" as="geometry" />
        </mxCell>
        <mxCell id="FlZPNkmP8DWsrbXSqgAE-116" value="VectorTileWorkerSource" style="swimlane;fontStyle=1;align=center;verticalAlign=top;childLayout=stackLayout;horizontal=1;startSize=26;horizontalStack=0;resizeParent=1;resizeParentMax=0;resizeLast=0;collapsible=1;marginBottom=0;labelBackgroundColor=none;" parent="WIyWlLk6GJQsqaUBKTNV-1" vertex="1" collapsed="1">
          <mxGeometry x="1123.5" y="863" width="173" height="24" as="geometry">
            <mxRectangle x="1123.5" y="863" width="160" height="86" as="alternateBounds" />
          </mxGeometry>
        </mxCell>
        <mxCell id="FlZPNkmP8DWsrbXSqgAE-117" value="+ field: type" style="text;strokeColor=none;fillColor=none;align=left;verticalAlign=top;spacingLeft=4;spacingRight=4;overflow=hidden;rotatable=0;points=[[0,0.5],[1,0.5]];portConstraint=eastwest;" parent="FlZPNkmP8DWsrbXSqgAE-116" vertex="1">
          <mxGeometry y="24" width="173" height="26" as="geometry" />
        </mxCell>
        <mxCell id="FlZPNkmP8DWsrbXSqgAE-118" value="" style="line;strokeWidth=1;fillColor=none;align=left;verticalAlign=middle;spacingTop=-1;spacingLeft=3;spacingRight=3;rotatable=0;labelPosition=right;points=[];portConstraint=eastwest;" parent="FlZPNkmP8DWsrbXSqgAE-116" vertex="1">
          <mxGeometry y="50" width="173" height="8" as="geometry" />
        </mxCell>
        <mxCell id="FlZPNkmP8DWsrbXSqgAE-119" value="+ method(type): type" style="text;strokeColor=none;fillColor=none;align=left;verticalAlign=top;spacingLeft=4;spacingRight=4;overflow=hidden;rotatable=0;points=[[0,0.5],[1,0.5]];portConstraint=eastwest;" parent="FlZPNkmP8DWsrbXSqgAE-116" vertex="1">
          <mxGeometry y="58" width="173" height="26" as="geometry" />
        </mxCell>
        <mxCell id="FlZPNkmP8DWsrbXSqgAE-138" value="*" style="text;html=1;align=center;verticalAlign=middle;resizable=0;points=[];autosize=1;" parent="WIyWlLk6GJQsqaUBKTNV-1" vertex="1">
          <mxGeometry x="1002" y="433" width="15" height="18" as="geometry" />
        </mxCell>
        <mxCell id="FlZPNkmP8DWsrbXSqgAE-139" value="WorkerTile" style="swimlane;fontStyle=1;align=center;verticalAlign=top;childLayout=stackLayout;horizontal=1;startSize=26;horizontalStack=0;resizeParent=1;resizeParentMax=0;resizeLast=0;collapsible=1;marginBottom=0;labelBackgroundColor=none;" parent="WIyWlLk6GJQsqaUBKTNV-1" vertex="1" collapsed="1">
          <mxGeometry x="1349" y="755" width="97" height="26" as="geometry">
            <mxRectangle x="1349" y="755" width="160" height="86" as="alternateBounds" />
          </mxGeometry>
        </mxCell>
        <mxCell id="FlZPNkmP8DWsrbXSqgAE-140" value="+ field: type" style="text;strokeColor=none;fillColor=none;align=left;verticalAlign=top;spacingLeft=4;spacingRight=4;overflow=hidden;rotatable=0;points=[[0,0.5],[1,0.5]];portConstraint=eastwest;" parent="FlZPNkmP8DWsrbXSqgAE-139" vertex="1">
          <mxGeometry y="26" width="97" height="26" as="geometry" />
        </mxCell>
        <mxCell id="FlZPNkmP8DWsrbXSqgAE-141" value="" style="line;strokeWidth=1;fillColor=none;align=left;verticalAlign=middle;spacingTop=-1;spacingLeft=3;spacingRight=3;rotatable=0;labelPosition=right;points=[];portConstraint=eastwest;" parent="FlZPNkmP8DWsrbXSqgAE-139" vertex="1">
          <mxGeometry y="52" width="97" height="8" as="geometry" />
        </mxCell>
        <mxCell id="FlZPNkmP8DWsrbXSqgAE-142" value="+ method(type): type" style="text;strokeColor=none;fillColor=none;align=left;verticalAlign=top;spacingLeft=4;spacingRight=4;overflow=hidden;rotatable=0;points=[[0,0.5],[1,0.5]];portConstraint=eastwest;" parent="FlZPNkmP8DWsrbXSqgAE-139" vertex="1">
          <mxGeometry y="60" width="97" height="26" as="geometry" />
        </mxCell>
        <mxCell id="FlZPNkmP8DWsrbXSqgAE-145" value="1" style="text;html=1;align=center;verticalAlign=middle;resizable=0;points=[];autosize=1;" parent="WIyWlLk6GJQsqaUBKTNV-1" vertex="1">
          <mxGeometry x="1282" y="745" width="17" height="18" as="geometry" />
        </mxCell>
        <mxCell id="FlZPNkmP8DWsrbXSqgAE-150" value="&lt;font style=&quot;font-size: 15px&quot;&gt;*&lt;/font&gt;" style="text;html=1;align=center;verticalAlign=middle;resizable=0;points=[];autosize=1;" parent="WIyWlLk6GJQsqaUBKTNV-1" vertex="1">
          <mxGeometry x="1329" y="748" width="16" height="19" as="geometry" />
        </mxCell>
        <mxCell id="FlZPNkmP8DWsrbXSqgAE-151" value="1" style="text;html=1;align=center;verticalAlign=middle;resizable=0;points=[];autosize=1;" parent="WIyWlLk6GJQsqaUBKTNV-1" vertex="1">
          <mxGeometry x="1073" y="679" width="17" height="18" as="geometry" />
        </mxCell>
        <mxCell id="FlZPNkmP8DWsrbXSqgAE-152" value="*" style="text;html=1;align=center;verticalAlign=middle;resizable=0;points=[];autosize=1;" parent="WIyWlLk6GJQsqaUBKTNV-1" vertex="1">
          <mxGeometry x="1116" y="744" width="15" height="18" as="geometry" />
        </mxCell>
        <mxCell id="FlZPNkmP8DWsrbXSqgAE-153" value="1" style="text;html=1;align=center;verticalAlign=middle;resizable=0;points=[];autosize=1;" parent="WIyWlLk6GJQsqaUBKTNV-1" vertex="1">
          <mxGeometry x="1064.5" y="157" width="17" height="18" as="geometry" />
        </mxCell>
        <mxCell id="aZz0crYhpi_2GFQYe-Nl-107" value="TileCache (LRU)" style="swimlane;fontStyle=1;align=center;verticalAlign=top;childLayout=stackLayout;horizontal=1;startSize=26;horizontalStack=0;resizeParent=1;resizeParentMax=0;resizeLast=0;collapsible=1;marginBottom=0;labelBackgroundColor=none;" parent="WIyWlLk6GJQsqaUBKTNV-1" vertex="1">
          <mxGeometry x="748" y="295" width="160" height="86" as="geometry">
            <mxRectangle x="775" y="260" width="110" height="26" as="alternateBounds" />
          </mxGeometry>
        </mxCell>
        <mxCell id="aZz0crYhpi_2GFQYe-Nl-108" value="+ max: number" style="text;strokeColor=none;fillColor=none;align=left;verticalAlign=top;spacingLeft=4;spacingRight=4;overflow=hidden;rotatable=0;points=[[0,0.5],[1,0.5]];portConstraint=eastwest;" parent="aZz0crYhpi_2GFQYe-Nl-107" vertex="1">
          <mxGeometry y="26" width="160" height="26" as="geometry" />
        </mxCell>
        <mxCell id="aZz0crYhpi_2GFQYe-Nl-109" value="" style="line;strokeWidth=1;fillColor=none;align=left;verticalAlign=middle;spacingTop=-1;spacingLeft=3;spacingRight=3;rotatable=0;labelPosition=right;points=[];portConstraint=eastwest;" parent="aZz0crYhpi_2GFQYe-Nl-107" vertex="1">
          <mxGeometry y="52" width="160" height="8" as="geometry" />
        </mxCell>
        <mxCell id="aZz0crYhpi_2GFQYe-Nl-110" value="+Â setMaxSize()" style="text;strokeColor=none;fillColor=none;align=left;verticalAlign=top;spacingLeft=4;spacingRight=4;overflow=hidden;rotatable=0;points=[[0,0.5],[1,0.5]];portConstraint=eastwest;" parent="aZz0crYhpi_2GFQYe-Nl-107" vertex="1">
          <mxGeometry y="60" width="160" height="26" as="geometry" />
        </mxCell>
        <mxCell id="FlZPNkmP8DWsrbXSqgAE-187" style="edgeStyle=orthogonalEdgeStyle;rounded=0;orthogonalLoop=1;jettySize=auto;html=1;entryX=0;entryY=0.5;entryDx=0;entryDy=0;labelBackgroundColor=none;startArrow=none;startFill=0;endArrow=open;endFill=0;" parent="WIyWlLk6GJQsqaUBKTNV-1" source="aZz0crYhpi_2GFQYe-Nl-99" target="FlZPNkmP8DWsrbXSqgAE-186" edge="1">
          <mxGeometry relative="1" as="geometry" />
        </mxCell>
        <mxCell id="aZz0crYhpi_2GFQYe-Nl-99" value="Tile" style="swimlane;fontStyle=1;align=center;verticalAlign=top;childLayout=stackLayout;horizontal=1;startSize=26;horizontalStack=0;resizeParent=1;resizeParentMax=0;resizeLast=0;collapsible=1;marginBottom=0;labelBackgroundColor=none;" parent="WIyWlLk6GJQsqaUBKTNV-1" vertex="1" collapsed="1">
          <mxGeometry x="950.75" y="407" width="89" height="26" as="geometry">
            <mxRectangle x="960" y="124" width="160" height="86" as="alternateBounds" />
          </mxGeometry>
        </mxCell>
        <mxCell id="aZz0crYhpi_2GFQYe-Nl-100" value="+ field: type" style="text;strokeColor=none;fillColor=none;align=left;verticalAlign=top;spacingLeft=4;spacingRight=4;overflow=hidden;rotatable=0;points=[[0,0.5],[1,0.5]];portConstraint=eastwest;" parent="aZz0crYhpi_2GFQYe-Nl-99" vertex="1">
          <mxGeometry y="26" width="89" height="26" as="geometry" />
        </mxCell>
        <mxCell id="aZz0crYhpi_2GFQYe-Nl-101" value="" style="line;strokeWidth=1;fillColor=none;align=left;verticalAlign=middle;spacingTop=-1;spacingLeft=3;spacingRight=3;rotatable=0;labelPosition=right;points=[];portConstraint=eastwest;" parent="aZz0crYhpi_2GFQYe-Nl-99" vertex="1">
          <mxGeometry y="52" width="89" height="8" as="geometry" />
        </mxCell>
        <mxCell id="aZz0crYhpi_2GFQYe-Nl-102" value="+ method(type): type" style="text;strokeColor=none;fillColor=none;align=left;verticalAlign=top;spacingLeft=4;spacingRight=4;overflow=hidden;rotatable=0;points=[[0,0.5],[1,0.5]];portConstraint=eastwest;" parent="aZz0crYhpi_2GFQYe-Nl-99" vertex="1">
          <mxGeometry y="60" width="89" height="26" as="geometry" />
        </mxCell>
        <mxCell id="FlZPNkmP8DWsrbXSqgAE-129" value="GeoJSONWorkerSource" style="swimlane;fontStyle=1;align=center;verticalAlign=top;childLayout=stackLayout;horizontal=1;startSize=26;horizontalStack=0;resizeParent=1;resizeParentMax=0;resizeLast=0;collapsible=1;marginBottom=0;labelBackgroundColor=none;" parent="WIyWlLk6GJQsqaUBKTNV-1" vertex="1" collapsed="1">
          <mxGeometry x="1123.5" y="897" width="176" height="25" as="geometry">
            <mxRectangle x="1123.5" y="897" width="173" height="86" as="alternateBounds" />
          </mxGeometry>
        </mxCell>
        <mxCell id="FlZPNkmP8DWsrbXSqgAE-130" value="+ field: type" style="text;strokeColor=none;fillColor=none;align=left;verticalAlign=top;spacingLeft=4;spacingRight=4;overflow=hidden;rotatable=0;points=[[0,0.5],[1,0.5]];portConstraint=eastwest;" parent="FlZPNkmP8DWsrbXSqgAE-129" vertex="1">
          <mxGeometry y="25" width="176" height="26" as="geometry" />
        </mxCell>
        <mxCell id="FlZPNkmP8DWsrbXSqgAE-131" value="" style="line;strokeWidth=1;fillColor=none;align=left;verticalAlign=middle;spacingTop=-1;spacingLeft=3;spacingRight=3;rotatable=0;labelPosition=right;points=[];portConstraint=eastwest;" parent="FlZPNkmP8DWsrbXSqgAE-129" vertex="1">
          <mxGeometry y="51" width="176" height="8" as="geometry" />
        </mxCell>
        <mxCell id="FlZPNkmP8DWsrbXSqgAE-132" value="+ getClusterExpansionZoom()" style="text;strokeColor=none;fillColor=none;align=left;verticalAlign=top;spacingLeft=4;spacingRight=4;overflow=hidden;rotatable=0;points=[[0,0.5],[1,0.5]];portConstraint=eastwest;" parent="FlZPNkmP8DWsrbXSqgAE-129" vertex="1">
          <mxGeometry y="59" width="176" height="26" as="geometry" />
        </mxCell>
        <mxCell id="FlZPNkmP8DWsrbXSqgAE-63" value="Dispatcher" style="swimlane;fontStyle=1;align=center;verticalAlign=top;childLayout=stackLayout;horizontal=1;startSize=26;horizontalStack=0;resizeParent=1;resizeParentMax=0;resizeLast=0;collapsible=1;marginBottom=0;labelBackgroundColor=none;" parent="WIyWlLk6GJQsqaUBKTNV-1" vertex="1">
          <mxGeometry x="627" y="494" width="160" height="103" as="geometry">
            <mxRectangle x="775" y="260" width="110" height="26" as="alternateBounds" />
          </mxGeometry>
        </mxCell>
        <mxCell id="FlZPNkmP8DWsrbXSqgAE-64" value="+ actors&#xa;+Â workerPool" style="text;strokeColor=none;fillColor=none;align=left;verticalAlign=top;spacingLeft=4;spacingRight=4;overflow=hidden;rotatable=0;points=[[0,0.5],[1,0.5]];portConstraint=eastwest;" parent="FlZPNkmP8DWsrbXSqgAE-63" vertex="1">
          <mxGeometry y="26" width="160" height="43" as="geometry" />
        </mxCell>
        <mxCell id="FlZPNkmP8DWsrbXSqgAE-65" value="" style="line;strokeWidth=1;fillColor=none;align=left;verticalAlign=middle;spacingTop=-1;spacingLeft=3;spacingRight=3;rotatable=0;labelPosition=right;points=[];portConstraint=eastwest;" parent="FlZPNkmP8DWsrbXSqgAE-63" vertex="1">
          <mxGeometry y="69" width="160" height="8" as="geometry" />
        </mxCell>
        <mxCell id="FlZPNkmP8DWsrbXSqgAE-66" value="+Â getActor() [round-robin]" style="text;strokeColor=none;fillColor=none;align=left;verticalAlign=top;spacingLeft=4;spacingRight=4;overflow=hidden;rotatable=0;points=[[0,0.5],[1,0.5]];portConstraint=eastwest;" parent="FlZPNkmP8DWsrbXSqgAE-63" vertex="1">
          <mxGeometry y="77" width="160" height="26" as="geometry" />
        </mxCell>
        <mxCell id="FlZPNkmP8DWsrbXSqgAE-157" style="edgeStyle=orthogonalEdgeStyle;rounded=0;orthogonalLoop=1;jettySize=auto;html=1;entryX=0.5;entryY=0;entryDx=0;entryDy=0;labelBackgroundColor=none;startArrow=none;startFill=0;endArrow=open;endFill=0;exitX=0.5;exitY=1;exitDx=0;exitDy=0;" parent="WIyWlLk6GJQsqaUBKTNV-1" source="zkfFHV4jXpPFQw0GAbJ--17" target="FlZPNkmP8DWsrbXSqgAE-13" edge="1">
          <mxGeometry relative="1" as="geometry">
            <Array as="points">
              <mxPoint x="570" y="372" />
              <mxPoint x="445" y="372" />
            </Array>
          </mxGeometry>
        </mxCell>
        <mxCell id="aZz0crYhpi_2GFQYe-Nl-10" value="Painter" style="swimlane;fontStyle=0;align=center;verticalAlign=top;childLayout=stackLayout;horizontal=1;startSize=26;horizontalStack=0;resizeParent=1;resizeLast=0;collapsible=1;marginBottom=0;rounded=0;shadow=0;strokeWidth=1;labelBackgroundColor=none;" parent="WIyWlLk6GJQsqaUBKTNV-1" vertex="1" collapsed="1">
          <mxGeometry x="-28" y="290" width="154" height="26" as="geometry">
            <mxRectangle x="-28" y="290" width="216" height="88" as="alternateBounds" />
          </mxGeometry>
        </mxCell>
        <mxCell id="FlZPNkmP8DWsrbXSqgAE-158" value="+ target: any(Worker)Â " style="text;strokeColor=none;fillColor=none;align=left;verticalAlign=top;spacingLeft=4;spacingRight=4;overflow=hidden;rotatable=0;points=[[0,0.5],[1,0.5]];portConstraint=eastwest;" parent="aZz0crYhpi_2GFQYe-Nl-10" vertex="1">
          <mxGeometry y="26" width="154" height="26" as="geometry" />
        </mxCell>
        <mxCell id="aZz0crYhpi_2GFQYe-Nl-12" value="" style="line;html=1;strokeWidth=1;align=left;verticalAlign=middle;spacingTop=-1;spacingLeft=3;spacingRight=3;rotatable=0;labelPosition=right;points=[];portConstraint=eastwest;" parent="aZz0crYhpi_2GFQYe-Nl-10" vertex="1">
          <mxGeometry y="52" width="154" height="8" as="geometry" />
        </mxCell>
        <mxCell id="FlZPNkmP8DWsrbXSqgAE-159" value="+ renderLayer(Layer, SourcCache)Â " style="text;strokeColor=none;fillColor=none;align=left;verticalAlign=top;spacingLeft=4;spacingRight=4;overflow=hidden;rotatable=0;points=[[0,0.5],[1,0.5]];portConstraint=eastwest;" parent="aZz0crYhpi_2GFQYe-Nl-10" vertex="1">
          <mxGeometry y="60" width="154" height="26" as="geometry" />
        </mxCell>
        <mxCell id="FlZPNkmP8DWsrbXSqgAE-160" value="Â«interfaceÂ»&lt;br&gt;&lt;b&gt;draw&lt;/b&gt;" style="html=1;dashed=1;" parent="WIyWlLk6GJQsqaUBKTNV-1" vertex="1">
          <mxGeometry x="-241" y="400" width="110" height="50" as="geometry" />
        </mxCell>
        <mxCell id="FlZPNkmP8DWsrbXSqgAE-174" style="edgeStyle=orthogonalEdgeStyle;rounded=0;orthogonalLoop=1;jettySize=auto;html=1;exitX=0.5;exitY=0;exitDx=0;exitDy=0;entryX=0.5;entryY=1;entryDx=0;entryDy=0;labelBackgroundColor=none;startArrow=none;startFill=0;endArrow=block;endFill=0;dashed=1;" parent="WIyWlLk6GJQsqaUBKTNV-1" source="FlZPNkmP8DWsrbXSqgAE-161" target="FlZPNkmP8DWsrbXSqgAE-160" edge="1">
          <mxGeometry relative="1" as="geometry" />
        </mxCell>
        <mxCell id="FlZPNkmP8DWsrbXSqgAE-173" style="edgeStyle=orthogonalEdgeStyle;rounded=0;orthogonalLoop=1;jettySize=auto;html=1;entryX=0.5;entryY=0;entryDx=0;entryDy=0;labelBackgroundColor=none;startArrow=none;startFill=0;endArrow=open;endFill=0;" parent="WIyWlLk6GJQsqaUBKTNV-1" source="FlZPNkmP8DWsrbXSqgAE-159" target="FlZPNkmP8DWsrbXSqgAE-160" edge="1">
          <mxGeometry relative="1" as="geometry" />
        </mxCell>
        <mxCell id="FlZPNkmP8DWsrbXSqgAE-192" style="edgeStyle=orthogonalEdgeStyle;rounded=0;orthogonalLoop=1;jettySize=auto;html=1;entryX=0;entryY=0.5;entryDx=0;entryDy=0;labelBackgroundColor=none;startArrow=none;startFill=0;endArrow=open;endFill=0;" parent="WIyWlLk6GJQsqaUBKTNV-1" source="FlZPNkmP8DWsrbXSqgAE-161" target="FlZPNkmP8DWsrbXSqgAE-0" edge="1">
          <mxGeometry relative="1" as="geometry" />
        </mxCell>
        <mxCell id="FlZPNkmP8DWsrbXSqgAE-13" value="StyleLayer" style="swimlane;fontStyle=1;align=center;verticalAlign=top;childLayout=stackLayout;horizontal=1;startSize=26;horizontalStack=0;resizeParent=1;resizeParentMax=0;resizeLast=0;collapsible=1;marginBottom=0;labelBackgroundColor=none;" parent="WIyWlLk6GJQsqaUBKTNV-1" vertex="1">
          <mxGeometry x="364" y="439" width="161" height="102" as="geometry">
            <mxRectangle x="364" y="439" width="170" height="25" as="alternateBounds" />
          </mxGeometry>
        </mxCell>
        <mxCell id="FlZPNkmP8DWsrbXSqgAE-14" value="+Â paint&#xa;+ layout" style="text;strokeColor=none;fillColor=none;align=left;verticalAlign=top;spacingLeft=4;spacingRight=4;overflow=hidden;rotatable=0;points=[[0,0.5],[1,0.5]];portConstraint=eastwest;" parent="FlZPNkmP8DWsrbXSqgAE-13" vertex="1">
          <mxGeometry y="26" width="161" height="42" as="geometry" />
        </mxCell>
        <mxCell id="FlZPNkmP8DWsrbXSqgAE-15" value="" style="line;strokeWidth=1;fillColor=none;align=left;verticalAlign=middle;spacingTop=-1;spacingLeft=3;spacingRight=3;rotatable=0;labelPosition=right;points=[];portConstraint=eastwest;" parent="FlZPNkmP8DWsrbXSqgAE-13" vertex="1">
          <mxGeometry y="68" width="161" height="8" as="geometry" />
        </mxCell>
        <mxCell id="FlZPNkmP8DWsrbXSqgAE-16" value="+ recalculate()" style="text;strokeColor=none;fillColor=none;align=left;verticalAlign=top;spacingLeft=4;spacingRight=4;overflow=hidden;rotatable=0;points=[[0,0.5],[1,0.5]];portConstraint=eastwest;" parent="FlZPNkmP8DWsrbXSqgAE-13" vertex="1">
          <mxGeometry y="76" width="161" height="26" as="geometry" />
        </mxCell>
        <mxCell id="FlZPNkmP8DWsrbXSqgAE-180" style="edgeStyle=orthogonalEdgeStyle;rounded=0;orthogonalLoop=1;jettySize=auto;html=1;labelBackgroundColor=none;startArrow=none;startFill=0;endArrow=open;endFill=0;" parent="WIyWlLk6GJQsqaUBKTNV-1" source="FlZPNkmP8DWsrbXSqgAE-9" target="FlZPNkmP8DWsrbXSqgAE-33" edge="1">
          <mxGeometry relative="1" as="geometry" />
        </mxCell>
        <mxCell id="FlZPNkmP8DWsrbXSqgAE-181" value="&lt;p style=&quot;margin: 0px ; margin-top: 4px ; text-align: center&quot;&gt;&lt;i&gt;&amp;lt;&amp;lt;Interface&amp;gt;&amp;gt;&lt;/i&gt;&lt;br&gt;&lt;b&gt;Expression&lt;/b&gt;&lt;br&gt;&lt;/p&gt;&lt;hr size=&quot;1&quot;&gt;&lt;p style=&quot;margin: 0px ; margin-left: 4px&quot;&gt;+ type&lt;/p&gt;&lt;hr size=&quot;1&quot;&gt;&lt;p style=&quot;margin: 0px ; margin-left: 4px&quot;&gt;+ evaluate()&lt;/p&gt;&lt;p style=&quot;margin: 0px ; margin-left: 4px&quot;&gt;+&amp;nbsp;serialize()&lt;/p&gt;" style="verticalAlign=top;align=left;overflow=fill;fontSize=12;fontFamily=Helvetica;html=1;dashed=1;" parent="WIyWlLk6GJQsqaUBKTNV-1" vertex="1">
          <mxGeometry x="373" y="865" width="172" height="120" as="geometry" />
        </mxCell>
        <mxCell id="FlZPNkmP8DWsrbXSqgAE-182" value="&lt;b&gt;CameraExpression&lt;/b&gt;" style="html=1;" parent="WIyWlLk6GJQsqaUBKTNV-1" vertex="1">
          <mxGeometry x="465.5" y="801" width="135" height="32" as="geometry" />
        </mxCell>
        <mxCell id="FlZPNkmP8DWsrbXSqgAE-185" value="EvaluationKind = &#39;constant&#39; | &#39;source&#39; | &#39;camera&#39; | &#39;composite&#39;;" style="text;html=1;align=center;verticalAlign=middle;resizable=0;points=[];autosize=1;" parent="WIyWlLk6GJQsqaUBKTNV-1" vertex="1">
          <mxGeometry x="269.5" y="771" width="331" height="18" as="geometry" />
        </mxCell>
        <mxCell id="FlZPNkmP8DWsrbXSqgAE-186" value="Â«interfaceÂ»&lt;br&gt;&lt;span style=&quot;font-weight: 700&quot;&gt;Bucket&lt;/span&gt;" style="html=1;labelBackgroundColor=none;" parent="WIyWlLk6GJQsqaUBKTNV-1" vertex="1">
          <mxGeometry x="1108.5" y="395" width="110" height="50" as="geometry" />
        </mxCell>
        <mxCell id="FlZPNkmP8DWsrbXSqgAE-188" value="1" style="text;html=1;align=center;verticalAlign=middle;resizable=0;points=[];autosize=1;" parent="WIyWlLk6GJQsqaUBKTNV-1" vertex="1">
          <mxGeometry x="1039" y="400" width="17" height="18" as="geometry" />
        </mxCell>
        <mxCell id="FlZPNkmP8DWsrbXSqgAE-189" value="&lt;font style=&quot;font-size: 16px&quot;&gt;*&lt;/font&gt;" style="text;html=1;align=center;verticalAlign=middle;resizable=0;points=[];autosize=1;" parent="WIyWlLk6GJQsqaUBKTNV-1" vertex="1">
          <mxGeometry x="1090" y="399" width="16" height="19" as="geometry" />
        </mxCell>
        <mxCell id="FlZPNkmP8DWsrbXSqgAE-190" style="edgeStyle=orthogonalEdgeStyle;rounded=0;orthogonalLoop=1;jettySize=auto;html=1;entryX=0.5;entryY=1;entryDx=0;entryDy=0;labelBackgroundColor=none;startArrow=none;startFill=0;endArrow=block;endFill=0;dashed=1;" parent="WIyWlLk6GJQsqaUBKTNV-1" source="FlZPNkmP8DWsrbXSqgAE-0" target="FlZPNkmP8DWsrbXSqgAE-4" edge="1">
          <mxGeometry relative="1" as="geometry" />
        </mxCell>
        <mxCell id="FlZPNkmP8DWsrbXSqgAE-193" style="edgeStyle=orthogonalEdgeStyle;rounded=0;orthogonalLoop=1;jettySize=auto;html=1;exitX=1;exitY=0.5;exitDx=0;exitDy=0;entryX=0;entryY=0.5;entryDx=0;entryDy=0;labelBackgroundColor=none;startArrow=none;startFill=0;endArrow=open;endFill=0;" parent="WIyWlLk6GJQsqaUBKTNV-1" source="FlZPNkmP8DWsrbXSqgAE-0" target="FlZPNkmP8DWsrbXSqgAE-5" edge="1">
          <mxGeometry relative="1" as="geometry" />
        </mxCell>
        <mxCell id="FlZPNkmP8DWsrbXSqgAE-0" value="CircleBucket" style="swimlane;fontStyle=1;align=center;verticalAlign=top;childLayout=stackLayout;horizontal=1;startSize=26;horizontalStack=0;resizeParent=1;resizeParentMax=0;resizeLast=0;collapsible=1;marginBottom=0;labelBackgroundColor=none;" parent="WIyWlLk6GJQsqaUBKTNV-1" vertex="1" collapsed="1">
          <mxGeometry x="-37" y="495" width="110" height="26" as="geometry">
            <mxRectangle x="960" y="124" width="160" height="86" as="alternateBounds" />
          </mxGeometry>
        </mxCell>
        <mxCell id="FlZPNkmP8DWsrbXSqgAE-1" value="+ field: type" style="text;strokeColor=none;fillColor=none;align=left;verticalAlign=top;spacingLeft=4;spacingRight=4;overflow=hidden;rotatable=0;points=[[0,0.5],[1,0.5]];portConstraint=eastwest;" parent="FlZPNkmP8DWsrbXSqgAE-0" vertex="1">
          <mxGeometry y="26" width="110" height="26" as="geometry" />
        </mxCell>
        <mxCell id="FlZPNkmP8DWsrbXSqgAE-2" value="" style="line;strokeWidth=1;fillColor=none;align=left;verticalAlign=middle;spacingTop=-1;spacingLeft=3;spacingRight=3;rotatable=0;labelPosition=right;points=[];portConstraint=eastwest;" parent="FlZPNkmP8DWsrbXSqgAE-0" vertex="1">
          <mxGeometry y="52" width="110" height="8" as="geometry" />
        </mxCell>
        <mxCell id="FlZPNkmP8DWsrbXSqgAE-3" value="+ method(type): type" style="text;strokeColor=none;fillColor=none;align=left;verticalAlign=top;spacingLeft=4;spacingRight=4;overflow=hidden;rotatable=0;points=[[0,0.5],[1,0.5]];portConstraint=eastwest;" parent="FlZPNkmP8DWsrbXSqgAE-0" vertex="1">
          <mxGeometry y="60" width="110" height="26" as="geometry" />
        </mxCell>
        <mxCell id="FlZPNkmP8DWsrbXSqgAE-195" style="edgeStyle=orthogonalEdgeStyle;rounded=0;orthogonalLoop=1;jettySize=auto;html=1;entryX=0;entryY=0.5;entryDx=0;entryDy=0;labelBackgroundColor=none;startArrow=none;startFill=0;endArrow=open;endFill=0;exitX=0.472;exitY=1;exitDx=0;exitDy=0;exitPerimeter=0;" parent="WIyWlLk6GJQsqaUBKTNV-1" source="FlZPNkmP8DWsrbXSqgAE-8" target="FlZPNkmP8DWsrbXSqgAE-176" edge="1">
          <mxGeometry relative="1" as="geometry" />
        </mxCell>
        <mxCell id="FlZPNkmP8DWsrbXSqgAE-5" value="ProgramConfiguration" style="swimlane;fontStyle=1;align=center;verticalAlign=top;childLayout=stackLayout;horizontal=1;startSize=26;horizontalStack=0;resizeParent=1;resizeParentMax=0;resizeLast=0;collapsible=1;marginBottom=0;labelBackgroundColor=none;" parent="WIyWlLk6GJQsqaUBKTNV-1" vertex="1">
          <mxGeometry x="110" y="495" width="193" height="86" as="geometry">
            <mxRectangle x="110" y="496" width="170" height="25" as="alternateBounds" />
          </mxGeometry>
        </mxCell>
        <mxCell id="FlZPNkmP8DWsrbXSqgAE-6" value="+ field: type" style="text;strokeColor=none;fillColor=none;align=left;verticalAlign=top;spacingLeft=4;spacingRight=4;overflow=hidden;rotatable=0;points=[[0,0.5],[1,0.5]];portConstraint=eastwest;" parent="FlZPNkmP8DWsrbXSqgAE-5" vertex="1">
          <mxGeometry y="26" width="193" height="26" as="geometry" />
        </mxCell>
        <mxCell id="FlZPNkmP8DWsrbXSqgAE-7" value="" style="line;strokeWidth=1;fillColor=none;align=left;verticalAlign=middle;spacingTop=-1;spacingLeft=3;spacingRight=3;rotatable=0;labelPosition=right;points=[];portConstraint=eastwest;" parent="FlZPNkmP8DWsrbXSqgAE-5" vertex="1">
          <mxGeometry y="52" width="193" height="8" as="geometry" />
        </mxCell>
        <mxCell id="FlZPNkmP8DWsrbXSqgAE-8" value="+ setUniforms(PossiblyEvaluated)" style="text;strokeColor=none;fillColor=none;align=left;verticalAlign=top;spacingLeft=4;spacingRight=4;overflow=hidden;rotatable=0;points=[[0,0.5],[1,0.5]];portConstraint=eastwest;" parent="FlZPNkmP8DWsrbXSqgAE-5" vertex="1">
          <mxGeometry y="60" width="193" height="26" as="geometry" />
        </mxCell>
        <mxCell id="FlZPNkmP8DWsrbXSqgAE-161" value="drawCircles" style="swimlane;fontStyle=1;align=center;verticalAlign=top;childLayout=stackLayout;horizontal=1;startSize=26;horizontalStack=0;resizeParent=1;resizeParentMax=0;resizeLast=0;collapsible=1;marginBottom=0;labelBackgroundColor=none;" parent="WIyWlLk6GJQsqaUBKTNV-1" vertex="1" collapsed="1">
          <mxGeometry x="-256" y="494" width="140" height="26" as="geometry">
            <mxRectangle x="960" y="124" width="160" height="86" as="alternateBounds" />
          </mxGeometry>
        </mxCell>
        <mxCell id="FlZPNkmP8DWsrbXSqgAE-162" value="+ field: type" style="text;strokeColor=none;fillColor=none;align=left;verticalAlign=top;spacingLeft=4;spacingRight=4;overflow=hidden;rotatable=0;points=[[0,0.5],[1,0.5]];portConstraint=eastwest;" parent="FlZPNkmP8DWsrbXSqgAE-161" vertex="1">
          <mxGeometry y="26" width="140" height="26" as="geometry" />
        </mxCell>
        <mxCell id="FlZPNkmP8DWsrbXSqgAE-163" value="" style="line;strokeWidth=1;fillColor=none;align=left;verticalAlign=middle;spacingTop=-1;spacingLeft=3;spacingRight=3;rotatable=0;labelPosition=right;points=[];portConstraint=eastwest;" parent="FlZPNkmP8DWsrbXSqgAE-161" vertex="1">
          <mxGeometry y="52" width="140" height="8" as="geometry" />
        </mxCell>
        <mxCell id="FlZPNkmP8DWsrbXSqgAE-164" value="+ method(type): type" style="text;strokeColor=none;fillColor=none;align=left;verticalAlign=top;spacingLeft=4;spacingRight=4;overflow=hidden;rotatable=0;points=[[0,0.5],[1,0.5]];portConstraint=eastwest;" parent="FlZPNkmP8DWsrbXSqgAE-161" vertex="1">
          <mxGeometry y="60" width="140" height="26" as="geometry" />
        </mxCell>
        <mxCell id="FlZPNkmP8DWsrbXSqgAE-165" value="drawRaster" style="swimlane;fontStyle=1;align=center;verticalAlign=top;childLayout=stackLayout;horizontal=1;startSize=26;horizontalStack=0;resizeParent=1;resizeParentMax=0;resizeLast=0;collapsible=1;marginBottom=0;labelBackgroundColor=none;" parent="WIyWlLk6GJQsqaUBKTNV-1" vertex="1" collapsed="1">
          <mxGeometry x="-256" y="562" width="140" height="26" as="geometry">
            <mxRectangle x="960" y="124" width="160" height="86" as="alternateBounds" />
          </mxGeometry>
        </mxCell>
        <mxCell id="FlZPNkmP8DWsrbXSqgAE-166" value="+ field: type" style="text;strokeColor=none;fillColor=none;align=left;verticalAlign=top;spacingLeft=4;spacingRight=4;overflow=hidden;rotatable=0;points=[[0,0.5],[1,0.5]];portConstraint=eastwest;" parent="FlZPNkmP8DWsrbXSqgAE-165" vertex="1">
          <mxGeometry y="26" width="140" height="26" as="geometry" />
        </mxCell>
        <mxCell id="FlZPNkmP8DWsrbXSqgAE-167" value="" style="line;strokeWidth=1;fillColor=none;align=left;verticalAlign=middle;spacingTop=-1;spacingLeft=3;spacingRight=3;rotatable=0;labelPosition=right;points=[];portConstraint=eastwest;" parent="FlZPNkmP8DWsrbXSqgAE-165" vertex="1">
          <mxGeometry y="52" width="140" height="8" as="geometry" />
        </mxCell>
        <mxCell id="FlZPNkmP8DWsrbXSqgAE-168" value="+ method(type): type" style="text;strokeColor=none;fillColor=none;align=left;verticalAlign=top;spacingLeft=4;spacingRight=4;overflow=hidden;rotatable=0;points=[[0,0.5],[1,0.5]];portConstraint=eastwest;" parent="FlZPNkmP8DWsrbXSqgAE-165" vertex="1">
          <mxGeometry y="60" width="140" height="26" as="geometry" />
        </mxCell>
        <mxCell id="FlZPNkmP8DWsrbXSqgAE-169" value="drawline" style="swimlane;fontStyle=1;align=center;verticalAlign=top;childLayout=stackLayout;horizontal=1;startSize=26;horizontalStack=0;resizeParent=1;resizeParentMax=0;resizeLast=0;collapsible=1;marginBottom=0;labelBackgroundColor=none;" parent="WIyWlLk6GJQsqaUBKTNV-1" vertex="1" collapsed="1">
          <mxGeometry x="-256" y="528" width="140" height="26" as="geometry">
            <mxRectangle x="960" y="124" width="160" height="86" as="alternateBounds" />
          </mxGeometry>
        </mxCell>
        <mxCell id="FlZPNkmP8DWsrbXSqgAE-170" value="+ field: type" style="text;strokeColor=none;fillColor=none;align=left;verticalAlign=top;spacingLeft=4;spacingRight=4;overflow=hidden;rotatable=0;points=[[0,0.5],[1,0.5]];portConstraint=eastwest;" parent="FlZPNkmP8DWsrbXSqgAE-169" vertex="1">
          <mxGeometry y="26" width="140" height="26" as="geometry" />
        </mxCell>
        <mxCell id="FlZPNkmP8DWsrbXSqgAE-171" value="" style="line;strokeWidth=1;fillColor=none;align=left;verticalAlign=middle;spacingTop=-1;spacingLeft=3;spacingRight=3;rotatable=0;labelPosition=right;points=[];portConstraint=eastwest;" parent="FlZPNkmP8DWsrbXSqgAE-169" vertex="1">
          <mxGeometry y="52" width="140" height="8" as="geometry" />
        </mxCell>
        <mxCell id="FlZPNkmP8DWsrbXSqgAE-172" value="+ method(type): type" style="text;strokeColor=none;fillColor=none;align=left;verticalAlign=top;spacingLeft=4;spacingRight=4;overflow=hidden;rotatable=0;points=[[0,0.5],[1,0.5]];portConstraint=eastwest;" parent="FlZPNkmP8DWsrbXSqgAE-169" vertex="1">
          <mxGeometry y="60" width="140" height="26" as="geometry" />
        </mxCell>
        <mxCell id="FlZPNkmP8DWsrbXSqgAE-176" value="PossiblyEvaluated" style="swimlane;fontStyle=1;align=center;verticalAlign=top;childLayout=stackLayout;horizontal=1;startSize=26;horizontalStack=0;resizeParent=1;resizeParentMax=0;resizeLast=0;collapsible=1;marginBottom=0;labelBackgroundColor=none;" parent="WIyWlLk6GJQsqaUBKTNV-1" vertex="1" collapsed="1">
          <mxGeometry x="365" y="609" width="160" height="26" as="geometry">
            <mxRectangle x="960" y="124" width="160" height="86" as="alternateBounds" />
          </mxGeometry>
        </mxCell>
        <mxCell id="FlZPNkmP8DWsrbXSqgAE-177" value="+ field: type" style="text;strokeColor=none;fillColor=none;align=left;verticalAlign=top;spacingLeft=4;spacingRight=4;overflow=hidden;rotatable=0;points=[[0,0.5],[1,0.5]];portConstraint=eastwest;" parent="FlZPNkmP8DWsrbXSqgAE-176" vertex="1">
          <mxGeometry y="26" width="160" height="26" as="geometry" />
        </mxCell>
        <mxCell id="FlZPNkmP8DWsrbXSqgAE-178" value="" style="line;strokeWidth=1;fillColor=none;align=left;verticalAlign=middle;spacingTop=-1;spacingLeft=3;spacingRight=3;rotatable=0;labelPosition=right;points=[];portConstraint=eastwest;" parent="FlZPNkmP8DWsrbXSqgAE-176" vertex="1">
          <mxGeometry y="52" width="160" height="8" as="geometry" />
        </mxCell>
        <mxCell id="FlZPNkmP8DWsrbXSqgAE-179" value="+ method(type): type" style="text;strokeColor=none;fillColor=none;align=left;verticalAlign=top;spacingLeft=4;spacingRight=4;overflow=hidden;rotatable=0;points=[[0,0.5],[1,0.5]];portConstraint=eastwest;" parent="FlZPNkmP8DWsrbXSqgAE-176" vertex="1">
          <mxGeometry y="60" width="160" height="26" as="geometry" />
        </mxCell>
        <mxCell id="FlZPNkmP8DWsrbXSqgAE-9" value="PossiblyEvaluatedPropertyValue" style="swimlane;fontStyle=1;align=center;verticalAlign=top;childLayout=stackLayout;horizontal=1;startSize=26;horizontalStack=0;resizeParent=1;resizeParentMax=0;resizeLast=0;collapsible=1;marginBottom=0;labelBackgroundColor=none;" parent="WIyWlLk6GJQsqaUBKTNV-1" vertex="1" collapsed="1">
          <mxGeometry x="335" y="680" width="220" height="25" as="geometry">
            <mxRectangle x="960" y="124" width="160" height="86" as="alternateBounds" />
          </mxGeometry>
        </mxCell>
        <mxCell id="FlZPNkmP8DWsrbXSqgAE-10" value="+ field: type" style="text;strokeColor=none;fillColor=none;align=left;verticalAlign=top;spacingLeft=4;spacingRight=4;overflow=hidden;rotatable=0;points=[[0,0.5],[1,0.5]];portConstraint=eastwest;" parent="FlZPNkmP8DWsrbXSqgAE-9" vertex="1">
          <mxGeometry y="25" width="220" height="26" as="geometry" />
        </mxCell>
        <mxCell id="FlZPNkmP8DWsrbXSqgAE-11" value="" style="line;strokeWidth=1;fillColor=none;align=left;verticalAlign=middle;spacingTop=-1;spacingLeft=3;spacingRight=3;rotatable=0;labelPosition=right;points=[];portConstraint=eastwest;" parent="FlZPNkmP8DWsrbXSqgAE-9" vertex="1">
          <mxGeometry y="51" width="220" height="8" as="geometry" />
        </mxCell>
        <mxCell id="FlZPNkmP8DWsrbXSqgAE-12" value="+ method(type): type" style="text;strokeColor=none;fillColor=none;align=left;verticalAlign=top;spacingLeft=4;spacingRight=4;overflow=hidden;rotatable=0;points=[[0,0.5],[1,0.5]];portConstraint=eastwest;" parent="FlZPNkmP8DWsrbXSqgAE-9" vertex="1">
          <mxGeometry y="59" width="220" height="26" as="geometry" />
        </mxCell>
        <mxCell id="FlZPNkmP8DWsrbXSqgAE-33" value="PossiblyEvaluatedValue" style="swimlane;fontStyle=1;align=center;verticalAlign=top;childLayout=stackLayout;horizontal=1;startSize=26;horizontalStack=0;resizeParent=1;resizeParentMax=0;resizeLast=0;collapsible=1;marginBottom=0;labelBackgroundColor=none;" parent="WIyWlLk6GJQsqaUBKTNV-1" vertex="1" collapsed="1">
          <mxGeometry x="335" y="735" width="220" height="25" as="geometry">
            <mxRectangle x="960" y="124" width="160" height="86" as="alternateBounds" />
          </mxGeometry>
        </mxCell>
        <mxCell id="FlZPNkmP8DWsrbXSqgAE-34" value="+ field: type" style="text;strokeColor=none;fillColor=none;align=left;verticalAlign=top;spacingLeft=4;spacingRight=4;overflow=hidden;rotatable=0;points=[[0,0.5],[1,0.5]];portConstraint=eastwest;" parent="FlZPNkmP8DWsrbXSqgAE-33" vertex="1">
          <mxGeometry y="25" width="220" height="26" as="geometry" />
        </mxCell>
        <mxCell id="FlZPNkmP8DWsrbXSqgAE-35" value="" style="line;strokeWidth=1;fillColor=none;align=left;verticalAlign=middle;spacingTop=-1;spacingLeft=3;spacingRight=3;rotatable=0;labelPosition=right;points=[];portConstraint=eastwest;" parent="FlZPNkmP8DWsrbXSqgAE-33" vertex="1">
          <mxGeometry y="51" width="220" height="8" as="geometry" />
        </mxCell>
        <mxCell id="FlZPNkmP8DWsrbXSqgAE-36" value="+ method(type): type" style="text;strokeColor=none;fillColor=none;align=left;verticalAlign=top;spacingLeft=4;spacingRight=4;overflow=hidden;rotatable=0;points=[[0,0.5],[1,0.5]];portConstraint=eastwest;" parent="FlZPNkmP8DWsrbXSqgAE-33" vertex="1">
          <mxGeometry y="59" width="220" height="26" as="geometry" />
        </mxCell>
        <mxCell id="Ytd0ITRqfC8FZNjAwmp--4" style="edgeStyle=orthogonalEdgeStyle;rounded=0;orthogonalLoop=1;jettySize=auto;html=1;endArrow=open;endFill=0;" edge="1" parent="WIyWlLk6GJQsqaUBKTNV-1" source="aZz0crYhpi_2GFQYe-Nl-74" target="aZz0crYhpi_2GFQYe-Nl-59">
          <mxGeometry relative="1" as="geometry" />
        </mxCell>
        <mxCell id="aZz0crYhpi_2GFQYe-Nl-74" value="Camera" style="swimlane;fontStyle=1;align=center;verticalAlign=top;childLayout=stackLayout;horizontal=1;startSize=26;horizontalStack=0;resizeParent=1;resizeParentMax=0;resizeLast=0;collapsible=1;marginBottom=0;labelBackgroundColor=none;" parent="WIyWlLk6GJQsqaUBKTNV-1" vertex="1">
          <mxGeometry x="243" y="-52" width="160" height="106" as="geometry">
            <mxRectangle x="268" y="49" width="110" height="26" as="alternateBounds" />
          </mxGeometry>
        </mxCell>
        <mxCell id="aZz0crYhpi_2GFQYe-Nl-75" value="+ transform: Transform" style="text;strokeColor=none;fillColor=none;align=left;verticalAlign=top;spacingLeft=4;spacingRight=4;overflow=hidden;rotatable=0;points=[[0,0.5],[1,0.5]];portConstraint=eastwest;" parent="aZz0crYhpi_2GFQYe-Nl-74" vertex="1">
          <mxGeometry y="26" width="160" height="26" as="geometry" />
        </mxCell>
        <mxCell id="aZz0crYhpi_2GFQYe-Nl-76" value="" style="line;strokeWidth=1;fillColor=none;align=left;verticalAlign=middle;spacingTop=-1;spacingLeft=3;spacingRight=3;rotatable=0;labelPosition=right;points=[];portConstraint=eastwest;" parent="aZz0crYhpi_2GFQYe-Nl-74" vertex="1">
          <mxGeometry y="52" width="160" height="8" as="geometry" />
        </mxCell>
        <mxCell id="aZz0crYhpi_2GFQYe-Nl-77" value="+ flyTo()&#xa;+Â fitBounds()" style="text;strokeColor=none;fillColor=none;align=left;verticalAlign=top;spacingLeft=4;spacingRight=4;overflow=hidden;rotatable=0;points=[[0,0.5],[1,0.5]];portConstraint=eastwest;" parent="aZz0crYhpi_2GFQYe-Nl-74" vertex="1">
          <mxGeometry y="60" width="160" height="46" as="geometry" />
        </mxCell>
        <mxCell id="aZz0crYhpi_2GFQYe-Nl-58" value="Transform" style="swimlane;fontStyle=1;align=center;verticalAlign=top;childLayout=stackLayout;horizontal=1;startSize=26;horizontalStack=0;resizeParent=1;resizeParentMax=0;resizeLast=0;collapsible=1;marginBottom=0;labelBackgroundColor=none;" parent="WIyWlLk6GJQsqaUBKTNV-1" vertex="1">
          <mxGeometry x="506.5" y="-67" width="147" height="158" as="geometry">
            <mxRectangle x="510" y="10" width="110" height="26" as="alternateBounds" />
          </mxGeometry>
        </mxCell>
        <mxCell id="aZz0crYhpi_2GFQYe-Nl-59" value="- zoom&#xa;- pitch&#xa;+Â mercatorMatrix&#xa;+Â projMatrix&#xa;+Â glCoordMatrix&#xa;" style="text;strokeColor=none;fillColor=none;align=left;verticalAlign=top;spacingLeft=4;spacingRight=4;overflow=hidden;rotatable=0;points=[[0,0.5],[1,0.5]];portConstraint=eastwest;" parent="aZz0crYhpi_2GFQYe-Nl-58" vertex="1">
          <mxGeometry y="26" width="147" height="84" as="geometry" />
        </mxCell>
        <mxCell id="aZz0crYhpi_2GFQYe-Nl-60" value="" style="line;strokeWidth=1;fillColor=none;align=left;verticalAlign=middle;spacingTop=-1;spacingLeft=3;spacingRight=3;rotatable=0;labelPosition=right;points=[];portConstraint=eastwest;" parent="aZz0crYhpi_2GFQYe-Nl-58" vertex="1">
          <mxGeometry y="110" width="147" height="8" as="geometry" />
        </mxCell>
        <mxCell id="aZz0crYhpi_2GFQYe-Nl-61" value="-Â _calcMatrices()&#xa;+Â coveringTiles()" style="text;strokeColor=none;fillColor=none;align=left;verticalAlign=top;spacingLeft=4;spacingRight=4;overflow=hidden;rotatable=0;points=[[0,0.5],[1,0.5]];portConstraint=eastwest;" parent="aZz0crYhpi_2GFQYe-Nl-58" vertex="1">
          <mxGeometry y="118" width="147" height="40" as="geometry" />
        </mxCell>
        <mxCell id="aZz0crYhpi_2GFQYe-Nl-13" value="HandlerManager" style="swimlane;fontStyle=0;align=center;verticalAlign=top;childLayout=stackLayout;horizontal=1;startSize=26;horizontalStack=0;resizeParent=1;resizeLast=0;collapsible=1;marginBottom=0;rounded=0;shadow=0;strokeWidth=1;labelBackgroundColor=none;" parent="WIyWlLk6GJQsqaUBKTNV-1" vertex="1">
          <mxGeometry x="-28" y="85" width="161" height="104" as="geometry">
            <mxRectangle x="24" y="134" width="140" height="26" as="alternateBounds" />
          </mxGeometry>
        </mxCell>
        <mxCell id="Ytd0ITRqfC8FZNjAwmp--7" value="- handlers" style="text;strokeColor=none;fillColor=none;align=left;verticalAlign=top;spacingLeft=4;spacingRight=4;overflow=hidden;rotatable=0;points=[[0,0.5],[1,0.5]];portConstraint=eastwest;" vertex="1" parent="aZz0crYhpi_2GFQYe-Nl-13">
          <mxGeometry y="26" width="161" height="26" as="geometry" />
        </mxCell>
        <mxCell id="aZz0crYhpi_2GFQYe-Nl-15" value="" style="line;html=1;strokeWidth=1;align=left;verticalAlign=middle;spacingTop=-1;spacingLeft=3;spacingRight=3;rotatable=0;labelPosition=right;points=[];portConstraint=eastwest;" parent="aZz0crYhpi_2GFQYe-Nl-13" vertex="1">
          <mxGeometry y="52" width="161" height="8" as="geometry" />
        </mxCell>
        <mxCell id="Ytd0ITRqfC8FZNjAwmp--6" value="- add(handler)&#xa;+ isMoving()" style="text;strokeColor=none;fillColor=none;align=left;verticalAlign=top;spacingLeft=4;spacingRight=4;overflow=hidden;rotatable=0;points=[[0,0.5],[1,0.5]];portConstraint=eastwest;" vertex="1" parent="aZz0crYhpi_2GFQYe-Nl-13">
          <mxGeometry y="60" width="161" height="44" as="geometry" />
        </mxCell>
      </root>
    </mxGraphModel>
  </diagram>
</mxfile>
